<svg width="9" height="11" viewBox="0 0 9 11" fill="none" xmlns="http://www.w3.org/2000/svg">
<path d="M1.5736e-07 4.71429L0 7.85714L1.8 7.85714L1.8 9.42857L3.6 9.42857L3.6 11L5.4 11V9.42857L7.2 9.42857V7.85714L9 7.85714V4.71429H7.2V6.28571H5.4V7.85714H3.6V6.28571H1.8L1.8 4.72656L1.78594 4.71429H1.5736e-07ZM3.6 4.71429V6.28571H5.38594L5.4 6.27344V4.71429H7.18594L7.2 4.70201V3.14286H9V0H7.2V1.57143H5.4V3.14286H3.6V1.57143H1.8L1.8 0H3.93403e-07L2.36042e-07 3.14286H1.8V4.71429H3.6Z" fill="white"/>
</svg>
