<svg width="9" height="11" viewBox="0 0 9 11" fill="none" xmlns="http://www.w3.org/2000/svg">
<path d="M1.5736e-07 6.28571L0 3.14286L1.8 3.14286L1.8 1.57143L3.6 1.57143L3.6 6.86894e-08L5.4 0V1.57143L7.2 1.57143V3.14286L9 3.14286V6.28571H7.2V4.71429H5.4V3.14286H3.6V4.71429H1.8L1.8 6.27344L1.78594 6.28571H1.5736e-07ZM3.6 6.28571V4.71429H5.38594L5.4 4.72656V6.28571H7.18594L7.2 6.29799V7.85714H9V11H7.2V9.42857H5.4V7.85714H3.6V9.42857H1.8L1.8 11H3.93403e-07L2.36042e-07 7.85714H1.8V6.28571H3.6Z" fill="white"/>
</svg>
