<?xml version="1.0" encoding="utf-8"?>
<!-- Generator: Adobe Illustrator 25.3.1, SVG Export Plug-In . SVG Version: 6.00 Build 0)  -->
<svg version="1.1" id="Layer_1" xmlns="http://www.w3.org/2000/svg" xmlns:xlink="http://www.w3.org/1999/xlink" x="0px" y="0px"
	 viewBox="0 0 198.43 283.46" style="enable-background:new 0 0 198.43 283.46;" xml:space="preserve">
<style type="text/css">
	.st0{fill:#2B2171;}
	.st1{fill:#FFFFFF;}
	.st2{fill:none;stroke:#FFFFFF;stroke-width:0.25;stroke-miterlimit:10;}
	.st3{opacity:0.31;}
	.st4{fill-rule:evenodd;clip-rule:evenodd;fill:#FFFFFF;}
</style>
<rect class="st0" width="198.43" height="283.46"/>
<g>
	<path class="st1" d="M70.94,158.21h1.65v6.06h-1.14v-4.71l0.05,0.27l-1.27,3.76h-1.11l-1.27-3.68l0.05-0.35v4.71h-1.14v-6.06h1.65
		l1.27,4.09L70.94,158.21z"/>
	<path class="st1" d="M73.9,158.21h1.25v1.14H73.9V158.21z M73.9,159.94h1.25v4.33H73.9V159.94z"/>
	<path class="st1" d="M77.57,162.84c0,0.11,0.03,0.19,0.1,0.24c0.07,0.06,0.16,0.09,0.28,0.09h0.21v1.1h-0.64
		c-0.38,0-0.68-0.1-0.89-0.3c-0.21-0.2-0.32-0.48-0.32-0.85v-4.92h1.25V162.84z"/>
	<path class="st1" d="M79.18,164c-0.25-0.22-0.38-0.56-0.38-1.01c0-0.43,0.14-0.75,0.42-0.96c0.28-0.21,0.71-0.32,1.27-0.32h1.19
		l0.06,0.87H80.5c-0.19,0-0.33,0.03-0.42,0.1c-0.09,0.07-0.14,0.17-0.14,0.31c0,0.14,0.06,0.25,0.18,0.31s0.3,0.1,0.54,0.1
		c0.33,0,0.58-0.04,0.75-0.1s0.25-0.18,0.25-0.33l0.1,0.63c-0.02,0.16-0.1,0.29-0.24,0.4s-0.31,0.19-0.52,0.24
		c-0.21,0.05-0.43,0.08-0.66,0.08C79.81,164.33,79.43,164.22,79.18,164z M81.64,161.53c0-0.2-0.07-0.35-0.22-0.46
		s-0.35-0.16-0.62-0.16c-0.18,0-0.35,0.03-0.53,0.08s-0.33,0.13-0.46,0.22l-0.78-0.7c0.19-0.2,0.44-0.35,0.75-0.46
		c0.31-0.11,0.66-0.16,1.03-0.16c0.42,0,0.77,0.06,1.06,0.19c0.29,0.13,0.52,0.31,0.67,0.55c0.15,0.24,0.23,0.53,0.23,0.87v2.78
		h-1.14V161.53z"/>
	<path class="st1" d="M84.61,164.11c-0.24-0.15-0.42-0.36-0.55-0.64c-0.12-0.28-0.19-0.62-0.19-1.01v-0.69
		c0-0.4,0.06-0.74,0.19-1.02c0.12-0.28,0.31-0.5,0.55-0.65s0.53-0.22,0.86-0.22c0.25,0,0.48,0.07,0.69,0.21s0.38,0.33,0.51,0.59
		l-0.1,0.96c0-0.15-0.03-0.27-0.08-0.38c-0.05-0.1-0.13-0.18-0.24-0.24c-0.1-0.05-0.23-0.08-0.38-0.08c-0.23,0-0.42,0.07-0.55,0.22
		c-0.13,0.15-0.2,0.35-0.2,0.62v0.69c0,0.26,0.07,0.46,0.2,0.6c0.13,0.14,0.31,0.21,0.55,0.21c0.15,0,0.28-0.03,0.38-0.08
		c0.11-0.05,0.19-0.13,0.24-0.23c0.05-0.1,0.08-0.22,0.08-0.36l0.06,0.99c-0.1,0.24-0.25,0.42-0.45,0.55
		c-0.2,0.13-0.44,0.19-0.72,0.19C85.14,164.33,84.85,164.26,84.61,164.11z M86.58,158.21h1.25v6.06h-1.25V158.21z"/>
	<path class="st1" d="M90.61,165.52c-0.53-0.23-0.93-0.57-1.19-1.03c-0.26-0.46-0.4-1.03-0.4-1.73c0-0.19,0-0.38,0-0.57
		c0-0.19,0-0.38,0-0.57c0.01-0.75,0.14-1.37,0.41-1.87c0.27-0.5,0.66-0.87,1.19-1.12c0.53-0.25,1.19-0.37,1.98-0.37
		c0.78,0,1.44,0.12,1.96,0.37s0.93,0.62,1.19,1.12c0.27,0.5,0.4,1.12,0.4,1.87v1.3c0,0.48-0.12,0.84-0.35,1.06
		c-0.24,0.23-0.58,0.34-1.02,0.34c-0.51,0-0.88-0.11-1.13-0.33s-0.38-0.54-0.38-0.98l1.04-0.03c0,0.15,0.03,0.26,0.09,0.33
		c0.06,0.07,0.16,0.11,0.29,0.11c0.12,0,0.21-0.03,0.26-0.1c0.05-0.07,0.08-0.18,0.08-0.33v-1.38c0-0.54-0.09-0.98-0.28-1.34
		c-0.18-0.36-0.46-0.63-0.82-0.81c-0.36-0.18-0.81-0.27-1.34-0.27c-0.54,0-1,0.09-1.36,0.27c-0.36,0.18-0.64,0.45-0.82,0.81
		s-0.28,0.81-0.29,1.35c0,0.19,0,0.37,0,0.56c0,0.19,0,0.38,0,0.57c0,0.48,0.09,0.89,0.27,1.21c0.18,0.32,0.46,0.56,0.82,0.72
		c0.37,0.16,0.82,0.24,1.38,0.24h1.36v0.93h-1.36C91.81,165.86,91.14,165.75,90.61,165.52z M91.24,163.87
		c-0.25-0.31-0.38-0.78-0.38-1.4v-0.72c0-0.62,0.14-1.09,0.43-1.4c0.29-0.31,0.72-0.46,1.3-0.46c0.58,0,1.01,0.15,1.3,0.46
		c0.29,0.31,0.43,0.78,0.43,1.41v1.35l-0.58,0.24c-0.06,0.33-0.21,0.58-0.43,0.74s-0.54,0.25-0.94,0.25
		C91.87,164.33,91.49,164.18,91.24,163.87z M92.98,163.08c0.08-0.13,0.13-0.32,0.13-0.58v-0.8c0-0.25-0.04-0.45-0.13-0.57
		c-0.09-0.13-0.22-0.19-0.39-0.19c-0.35,0-0.53,0.26-0.53,0.77v0.79c0,0.26,0.04,0.46,0.13,0.58c0.09,0.13,0.22,0.19,0.4,0.19
		C92.77,163.27,92.9,163.21,92.98,163.08z"/>
	<path class="st1" d="M97.4,159.94h1.25v6.09H97.4V159.94z M99.04,164.14c-0.2-0.13-0.35-0.31-0.45-0.55l0.06-0.99
		c0,0.14,0.03,0.26,0.08,0.36c0.06,0.1,0.13,0.18,0.24,0.23s0.23,0.08,0.38,0.08c0.24,0,0.42-0.07,0.55-0.21s0.19-0.34,0.19-0.6
		v-0.69c0-0.26-0.06-0.47-0.19-0.62c-0.13-0.15-0.31-0.22-0.55-0.22c-0.15,0-0.28,0.03-0.38,0.08c-0.11,0.05-0.18,0.13-0.24,0.24
		c-0.05,0.1-0.08,0.23-0.08,0.38l-0.1-0.96c0.13-0.25,0.3-0.45,0.5-0.59s0.44-0.21,0.69-0.21c0.33,0,0.62,0.07,0.86,0.22
		c0.24,0.15,0.42,0.36,0.55,0.65c0.12,0.28,0.19,0.62,0.19,1.02v0.69c0,0.39-0.06,0.73-0.19,1.01c-0.12,0.28-0.31,0.49-0.55,0.64
		c-0.24,0.15-0.53,0.22-0.86,0.22C99.48,164.33,99.24,164.27,99.04,164.14z"/>
	<path class="st1" d="M103.3,164.11c-0.31-0.15-0.54-0.36-0.7-0.64s-0.24-0.62-0.24-1.02v-0.7c0-0.39,0.08-0.73,0.24-1.01
		s0.39-0.49,0.7-0.64c0.31-0.15,0.68-0.22,1.11-0.22c0.43,0,0.8,0.07,1.11,0.22c0.31,0.15,0.54,0.36,0.7,0.64s0.24,0.62,0.24,1.01
		v0.72c0,0.39-0.08,0.73-0.24,1.01c-0.16,0.28-0.39,0.49-0.7,0.64s-0.68,0.22-1.11,0.22C103.98,164.33,103.61,164.26,103.3,164.11z
		 M105,163.03c0.14-0.13,0.21-0.32,0.21-0.57v-0.72c0-0.24-0.07-0.43-0.21-0.56c-0.14-0.13-0.34-0.2-0.59-0.2
		c-0.25,0-0.44,0.07-0.58,0.2c-0.14,0.13-0.21,0.32-0.21,0.56v0.72c0,0.25,0.07,0.43,0.21,0.57c0.14,0.13,0.33,0.2,0.59,0.2
		S104.85,163.16,105,163.03z"/>
	<path class="st1" d="M108.86,162.84c0,0.11,0.03,0.19,0.1,0.24c0.07,0.06,0.16,0.09,0.28,0.09h0.21v1.1h-0.64
		c-0.38,0-0.68-0.1-0.89-0.3c-0.21-0.2-0.32-0.48-0.32-0.85v-4.92h1.25V162.84z"/>
	<path class="st1" d="M109.81,159.94h1.18l1.6,3.76l-0.79,0.92L109.81,159.94z M114.2,159.94l-2.11,5.34
		c-0.08,0.2-0.18,0.35-0.29,0.47c-0.12,0.12-0.26,0.2-0.43,0.25c-0.17,0.05-0.38,0.07-0.64,0.07h-0.28v-1.11h0.28
		c0.13,0,0.25-0.03,0.34-0.08c0.09-0.05,0.16-0.14,0.2-0.26l1.76-4.68H114.2z"/>
	<path class="st1" d="M115.43,164.11c-0.24-0.15-0.42-0.36-0.55-0.64c-0.12-0.28-0.19-0.62-0.19-1.01v-0.69
		c0-0.4,0.06-0.74,0.19-1.02c0.12-0.28,0.31-0.5,0.55-0.65s0.53-0.22,0.86-0.22c0.25,0,0.48,0.07,0.69,0.21s0.38,0.33,0.51,0.59
		l-0.1,0.96c0-0.15-0.03-0.27-0.08-0.38c-0.05-0.1-0.13-0.18-0.24-0.24c-0.1-0.05-0.23-0.08-0.38-0.08c-0.23,0-0.42,0.07-0.55,0.22
		c-0.13,0.15-0.2,0.35-0.2,0.62v0.69c0,0.26,0.07,0.46,0.2,0.6c0.13,0.14,0.31,0.21,0.55,0.21c0.15,0,0.28-0.03,0.38-0.08
		c0.11-0.05,0.19-0.13,0.24-0.23c0.05-0.1,0.08-0.22,0.08-0.36l0.06,0.99c-0.1,0.24-0.25,0.42-0.45,0.55
		c-0.2,0.13-0.44,0.19-0.72,0.19C115.96,164.33,115.67,164.26,115.43,164.11z M115.51,165.85c-0.3-0.12-0.53-0.29-0.69-0.51
		l0.84-0.71c0.11,0.11,0.23,0.19,0.38,0.24s0.31,0.09,0.47,0.09c0.26,0,0.48-0.07,0.64-0.2s0.25-0.31,0.25-0.54v-4.28h1.25v4.2
		c0,0.4-0.08,0.74-0.25,1.02c-0.17,0.28-0.41,0.5-0.73,0.65s-0.7,0.22-1.16,0.22C116.14,166.03,115.8,165.97,115.51,165.85z"/>
	<path class="st1" d="M120.69,164.11c-0.31-0.15-0.54-0.36-0.7-0.64s-0.24-0.62-0.24-1.02v-0.7c0-0.39,0.08-0.73,0.24-1.01
		s0.39-0.49,0.7-0.64c0.31-0.15,0.68-0.22,1.11-0.22c0.43,0,0.8,0.07,1.11,0.22c0.31,0.15,0.54,0.36,0.7,0.64s0.24,0.62,0.24,1.01
		v0.72c0,0.39-0.08,0.73-0.24,1.01c-0.16,0.28-0.39,0.49-0.7,0.64s-0.68,0.22-1.11,0.22C121.37,164.33,121,164.26,120.69,164.11z
		 M122.38,163.03c0.14-0.13,0.21-0.32,0.21-0.57v-0.72c0-0.24-0.07-0.43-0.21-0.56c-0.14-0.13-0.34-0.2-0.59-0.2
		c-0.25,0-0.44,0.07-0.58,0.2c-0.14,0.13-0.21,0.32-0.21,0.56v0.72c0,0.25,0.07,0.43,0.21,0.57c0.14,0.13,0.33,0.2,0.59,0.2
		S122.24,163.16,122.38,163.03z"/>
	<path class="st1" d="M124.99,159.94h1.25v4.33h-1.25V159.94z M127.74,161.65c0-0.21-0.07-0.38-0.2-0.49
		c-0.13-0.12-0.32-0.17-0.56-0.17c-0.23,0-0.41,0.06-0.54,0.18c-0.13,0.12-0.19,0.28-0.19,0.5l-0.1-0.96
		c0.14-0.27,0.31-0.48,0.51-0.61c0.2-0.14,0.45-0.2,0.75-0.2c0.5,0,0.89,0.15,1.16,0.46c0.27,0.31,0.41,0.74,0.41,1.3v2.63h-1.25
		V161.65z"/>
</g>
<g>
	<path class="st1" d="M85.35,178.63h-0.71v-4.62h0.71V178.63z"/>
	<path class="st1" d="M86.53,175.33h0.71v3.29h-0.71V175.33z M88.69,176.63c0-0.23-0.06-0.41-0.19-0.54
		c-0.12-0.13-0.3-0.19-0.53-0.19c-0.23,0-0.41,0.06-0.54,0.17c-0.13,0.11-0.19,0.27-0.19,0.47l-0.07-0.63
		c0.11-0.2,0.26-0.35,0.44-0.46c0.18-0.11,0.38-0.16,0.6-0.16c0.25,0,0.47,0.05,0.65,0.16c0.18,0.1,0.32,0.26,0.41,0.46
		c0.09,0.2,0.14,0.44,0.14,0.73v2h-0.71V176.63z M90.85,176.63c0-0.23-0.07-0.41-0.2-0.54c-0.13-0.13-0.32-0.19-0.56-0.19
		c-0.22,0-0.39,0.06-0.51,0.18c-0.12,0.12-0.18,0.3-0.18,0.52l-0.14-0.63c0.11-0.22,0.26-0.39,0.45-0.51
		c0.19-0.12,0.39-0.18,0.62-0.18c0.26,0,0.48,0.05,0.67,0.16c0.18,0.1,0.33,0.26,0.42,0.46c0.1,0.2,0.14,0.44,0.14,0.73v2h-0.71
		V176.63z"/>
	<path class="st1" d="M94.55,175.33h0.71v3.29h-0.71V175.33z M96.71,176.63c0-0.23-0.06-0.41-0.19-0.54
		c-0.13-0.13-0.3-0.19-0.53-0.19c-0.23,0-0.41,0.06-0.54,0.17c-0.13,0.11-0.19,0.27-0.19,0.47l-0.07-0.63
		c0.11-0.2,0.26-0.35,0.44-0.46c0.18-0.11,0.38-0.16,0.6-0.16c0.25,0,0.47,0.05,0.65,0.16c0.18,0.1,0.32,0.26,0.41,0.46
		s0.14,0.44,0.14,0.73v2h-0.71V176.63z M98.87,176.63c0-0.23-0.07-0.41-0.2-0.54c-0.13-0.13-0.32-0.19-0.56-0.19
		c-0.22,0-0.39,0.06-0.51,0.18c-0.12,0.12-0.18,0.3-0.18,0.52l-0.14-0.63c0.11-0.22,0.26-0.39,0.45-0.51
		c0.19-0.12,0.39-0.18,0.62-0.18c0.26,0,0.48,0.05,0.67,0.16c0.18,0.1,0.33,0.26,0.42,0.46c0.1,0.2,0.14,0.44,0.14,0.73v2h-0.71
		V176.63z"/>
	<path class="st1" d="M100.66,174.01h0.71v0.65h-0.71V174.01z M100.66,175.33h0.71v3.29h-0.71V175.33z"/>
	<path class="st1" d="M103.16,177.78c0,0.08,0.02,0.14,0.06,0.19c0.04,0.04,0.09,0.07,0.16,0.07h0.33v0.62h-0.42
		c-0.27,0-0.48-0.08-0.62-0.23s-0.22-0.37-0.22-0.64v-3.76h0.71V177.78z"/>
	<path class="st1" d="M104.67,178.42c-0.22-0.17-0.33-0.42-0.33-0.77c0-0.33,0.1-0.57,0.3-0.73c0.2-0.16,0.51-0.25,0.92-0.25h1.03
		l0.05,0.52h-1.07c-0.19,0-0.32,0.04-0.42,0.11s-0.14,0.19-0.14,0.34c0,0.17,0.06,0.29,0.18,0.37c0.12,0.08,0.31,0.12,0.56,0.12
		c0.27,0,0.47-0.03,0.61-0.08s0.2-0.14,0.2-0.25l0.07,0.46c-0.06,0.09-0.14,0.16-0.23,0.22c-0.09,0.06-0.2,0.1-0.32,0.13
		c-0.12,0.03-0.26,0.04-0.41,0.04C105.23,178.68,104.89,178.59,104.67,178.42z M106.56,176.54c0-0.22-0.06-0.38-0.19-0.5
		c-0.13-0.12-0.31-0.18-0.54-0.18c-0.14,0-0.29,0.02-0.42,0.06c-0.14,0.04-0.26,0.1-0.37,0.17l-0.52-0.32
		c0.14-0.15,0.32-0.27,0.54-0.35c0.22-0.08,0.47-0.12,0.75-0.12c0.3,0,0.56,0.05,0.77,0.14c0.21,0.1,0.38,0.24,0.49,0.42
		c0.11,0.18,0.17,0.4,0.17,0.66v2.12h-0.68V176.54z"/>
	<path class="st1" d="M108.78,178.53c-0.19-0.11-0.33-0.26-0.43-0.46s-0.15-0.44-0.15-0.72v-0.73c0-0.28,0.05-0.53,0.14-0.73
		c0.09-0.2,0.23-0.35,0.42-0.46c0.18-0.1,0.4-0.16,0.66-0.16c0.21,0,0.41,0.05,0.59,0.15s0.32,0.24,0.43,0.43l-0.07,0.67
		c0-0.14-0.03-0.26-0.08-0.36c-0.06-0.1-0.14-0.17-0.24-0.23s-0.23-0.08-0.38-0.08c-0.23,0-0.42,0.07-0.54,0.2
		c-0.13,0.13-0.19,0.32-0.19,0.56v0.72c0,0.24,0.06,0.42,0.19,0.55s0.31,0.2,0.54,0.2c0.15,0,0.28-0.03,0.38-0.08
		s0.19-0.13,0.24-0.23s0.08-0.22,0.08-0.37l0.05,0.7c-0.07,0.16-0.19,0.3-0.35,0.41c-0.16,0.11-0.37,0.16-0.6,0.16
		C109.19,178.69,108.96,178.63,108.78,178.53z M110.36,174.01h0.71v4.62h-0.71V174.01z"/>
	<path class="st1" d="M76.68,183.13h1.63v0.58h-1.63V183.13z M77.26,186.22c-0.14-0.15-0.2-0.36-0.2-0.65v-3.4h0.71v3.4
		c0,0.08,0.02,0.14,0.05,0.19c0.04,0.04,0.09,0.07,0.15,0.07h0.34v0.62H77.9C77.61,186.45,77.39,186.37,77.26,186.22z"/>
	<path class="st1" d="M79.28,181.81H80v4.62h-0.71V181.81z M81.48,184.43c0-0.23-0.07-0.41-0.2-0.54s-0.32-0.19-0.56-0.19
		c-0.23,0-0.41,0.06-0.54,0.17c-0.13,0.11-0.19,0.27-0.19,0.47l-0.07-0.63c0.11-0.19,0.26-0.35,0.44-0.45
		c0.18-0.11,0.38-0.16,0.6-0.16c0.39,0,0.7,0.12,0.91,0.35c0.21,0.23,0.32,0.56,0.32,0.99v2h-0.71V184.43z"/>
	<path class="st1" d="M83.89,186.31c-0.24-0.11-0.42-0.28-0.54-0.5c-0.12-0.22-0.19-0.49-0.19-0.8v-0.37c0-0.33,0.06-0.6,0.18-0.83
		c0.12-0.23,0.29-0.41,0.52-0.53s0.5-0.18,0.82-0.18c0.3,0,0.56,0.07,0.77,0.21c0.21,0.14,0.38,0.34,0.49,0.6
		c0.11,0.26,0.17,0.57,0.17,0.94v0.22h-2.44v-0.52h1.76c-0.02-0.27-0.1-0.48-0.23-0.63c-0.13-0.15-0.31-0.22-0.53-0.22
		c-0.27,0-0.48,0.08-0.62,0.24c-0.15,0.16-0.22,0.39-0.22,0.68v0.42c0,0.27,0.08,0.48,0.24,0.63c0.16,0.15,0.38,0.22,0.67,0.22
		c0.14,0,0.29-0.03,0.43-0.08s0.27-0.13,0.38-0.22l0.47,0.42c-0.18,0.16-0.38,0.28-0.6,0.36c-0.22,0.09-0.45,0.13-0.67,0.13
		C84.41,186.48,84.13,186.42,83.89,186.31z"/>
	<path class="st1" d="M88.73,183.13h1.81v0.55h-1.81V183.13z M89.11,182.69c0-0.29,0.07-0.51,0.22-0.66
		c0.15-0.14,0.37-0.22,0.68-0.22h0.52v0.62h-0.51c-0.07,0-0.12,0.02-0.15,0.07c-0.04,0.05-0.05,0.11-0.05,0.18v3.75h-0.71V182.69z"
		/>
	<path class="st1" d="M91.27,181.81h0.71v0.65h-0.71V181.81z M91.27,183.13h0.71v3.29h-0.71V183.13z"/>
	<path class="st1" d="M93.06,183.13h0.71v3.29h-0.71V183.13z M94.81,183.76c-0.09-0.04-0.21-0.05-0.33-0.05
		c-0.22,0-0.4,0.06-0.52,0.17c-0.12,0.11-0.19,0.27-0.19,0.47l-0.07-0.63c0.11-0.2,0.25-0.35,0.43-0.46
		c0.18-0.11,0.37-0.16,0.58-0.16c0.17,0,0.31,0.02,0.45,0.06c0.13,0.04,0.25,0.11,0.35,0.19l-0.46,0.57
		C94.98,183.85,94.9,183.79,94.81,183.76z"/>
	<path class="st1" d="M96.78,186.42c-0.19-0.04-0.36-0.09-0.52-0.17c-0.16-0.08-0.31-0.17-0.45-0.29l0.42-0.47
		c0.2,0.14,0.39,0.24,0.58,0.3c0.19,0.07,0.38,0.1,0.57,0.1c0.28,0,0.49-0.04,0.63-0.12s0.21-0.2,0.21-0.36
		c0-0.11-0.04-0.18-0.12-0.24c-0.08-0.05-0.17-0.09-0.29-0.11c-0.11-0.02-0.27-0.03-0.48-0.05c-0.02,0-0.04,0-0.06,0
		c-0.02,0-0.04,0-0.06,0c-0.01,0-0.02,0-0.03,0c-0.01,0-0.02,0-0.03,0c-0.24-0.02-0.43-0.05-0.6-0.09c-0.16-0.05-0.3-0.13-0.41-0.26
		c-0.11-0.12-0.16-0.3-0.16-0.54s0.05-0.43,0.16-0.58s0.26-0.27,0.47-0.35c0.21-0.08,0.46-0.12,0.78-0.12
		c0.19,0,0.37,0.02,0.54,0.05c0.17,0.03,0.33,0.08,0.49,0.14s0.3,0.14,0.45,0.24l-0.43,0.47c-0.18-0.11-0.36-0.19-0.53-0.24
		c-0.18-0.05-0.35-0.08-0.51-0.08c-0.24,0-0.42,0.04-0.54,0.11c-0.12,0.08-0.18,0.19-0.18,0.34c0,0.09,0.03,0.16,0.1,0.2
		c0.07,0.04,0.15,0.07,0.26,0.09s0.25,0.03,0.45,0.04c0.01,0,0.03,0,0.04,0c0.02,0,0.03,0,0.05,0c0.01,0,0.01,0,0.02,0
		s0.01,0,0.02,0c0.25,0.02,0.47,0.05,0.65,0.09c0.18,0.05,0.33,0.14,0.45,0.28c0.12,0.14,0.18,0.34,0.18,0.6
		c0,0.24-0.06,0.43-0.17,0.59c-0.11,0.16-0.28,0.27-0.5,0.35c-0.22,0.08-0.51,0.12-0.84,0.12
		C97.16,186.48,96.96,186.46,96.78,186.42z"/>
	<path class="st1" d="M99.52,183.13h1.63v0.58h-1.63V183.13z M100.09,186.22c-0.14-0.15-0.2-0.36-0.2-0.65v-3.4h0.71v3.4
		c0,0.08,0.02,0.14,0.05,0.19c0.03,0.04,0.09,0.07,0.15,0.07h0.34v0.62h-0.41C100.45,186.45,100.23,186.37,100.09,186.22z"/>
	<path class="st1" d="M104.04,183.13h0.71v3.29h-0.71V183.13z M106.2,184.43c0-0.23-0.06-0.41-0.19-0.54
		c-0.13-0.13-0.3-0.19-0.53-0.19c-0.23,0-0.41,0.06-0.54,0.17c-0.13,0.11-0.19,0.27-0.19,0.47l-0.07-0.63
		c0.11-0.2,0.26-0.35,0.44-0.46c0.18-0.11,0.38-0.16,0.6-0.16c0.25,0,0.47,0.05,0.65,0.16c0.18,0.1,0.32,0.26,0.41,0.46
		s0.14,0.44,0.14,0.73v2h-0.71V184.43z M108.36,184.43c0-0.23-0.07-0.41-0.2-0.54c-0.13-0.13-0.32-0.19-0.56-0.19
		c-0.22,0-0.39,0.06-0.51,0.18c-0.12,0.12-0.18,0.3-0.18,0.52l-0.14-0.63c0.11-0.22,0.26-0.39,0.45-0.51
		c0.19-0.12,0.39-0.18,0.62-0.18c0.26,0,0.48,0.05,0.67,0.16c0.18,0.1,0.33,0.26,0.42,0.46c0.1,0.2,0.14,0.44,0.14,0.73v2h-0.71
		V184.43z"/>
	<path class="st1" d="M110.15,181.81h0.71v0.65h-0.71V181.81z M110.15,183.13h0.71v3.29h-0.71V183.13z"/>
	<path class="st1" d="M111.94,183.13h0.71v3.29h-0.71V183.13z M114.13,184.43c0-0.23-0.07-0.41-0.2-0.54
		c-0.13-0.13-0.32-0.19-0.56-0.19c-0.23,0-0.41,0.06-0.54,0.17c-0.13,0.11-0.19,0.27-0.19,0.47l-0.07-0.63
		c0.11-0.2,0.26-0.35,0.44-0.46c0.18-0.11,0.38-0.16,0.6-0.16c0.39,0,0.7,0.12,0.91,0.35c0.21,0.23,0.32,0.56,0.32,0.99v2h-0.71
		V184.43z"/>
	<path class="st1" d="M116.39,186.33c-0.19-0.11-0.33-0.26-0.43-0.46s-0.15-0.44-0.15-0.72v-0.73c0-0.28,0.05-0.53,0.14-0.73
		c0.09-0.2,0.23-0.35,0.42-0.46c0.18-0.1,0.4-0.16,0.66-0.16c0.21,0,0.41,0.05,0.59,0.15s0.32,0.24,0.43,0.43l-0.07,0.67
		c0-0.14-0.03-0.26-0.08-0.36c-0.06-0.1-0.14-0.17-0.24-0.23s-0.23-0.08-0.38-0.08c-0.23,0-0.42,0.07-0.54,0.2
		c-0.13,0.13-0.19,0.32-0.19,0.56v0.72c0,0.24,0.06,0.42,0.19,0.55s0.31,0.2,0.54,0.2c0.15,0,0.28-0.03,0.38-0.08
		s0.19-0.13,0.24-0.23s0.08-0.22,0.08-0.37l0.05,0.7c-0.07,0.16-0.19,0.3-0.35,0.41c-0.16,0.11-0.37,0.16-0.6,0.16
		C116.8,186.49,116.57,186.43,116.39,186.33z M117.97,181.81h0.71v4.62h-0.71V181.81z"/>
	<path class="st1" d="M74.84,189.61h0.71v4.62h-0.71V189.61z M75.87,194.13c-0.17-0.1-0.29-0.24-0.37-0.42l0.05-0.69
		c0,0.14,0.03,0.26,0.08,0.36c0.06,0.1,0.14,0.17,0.24,0.23c0.11,0.05,0.23,0.08,0.38,0.08c0.23,0,0.42-0.07,0.54-0.2
		c0.13-0.13,0.19-0.31,0.19-0.55v-0.71c0-0.24-0.06-0.43-0.19-0.56c-0.13-0.13-0.31-0.2-0.54-0.2c-0.15,0-0.28,0.03-0.38,0.08
		c-0.11,0.05-0.19,0.12-0.24,0.22s-0.08,0.22-0.08,0.35l-0.07-0.63c0.11-0.19,0.25-0.34,0.43-0.45c0.18-0.11,0.37-0.16,0.59-0.16
		c0.26,0,0.47,0.05,0.66,0.16c0.18,0.1,0.32,0.26,0.42,0.46s0.14,0.44,0.14,0.73v0.72c0,0.28-0.05,0.52-0.15,0.72
		c-0.1,0.2-0.24,0.35-0.43,0.46c-0.19,0.1-0.41,0.16-0.68,0.16C76.23,194.28,76.04,194.23,75.87,194.13z"/>
	<path class="st1" d="M79.34,194.11c-0.24-0.11-0.42-0.28-0.54-0.5c-0.12-0.22-0.19-0.49-0.19-0.8v-0.37c0-0.33,0.06-0.6,0.18-0.83
		c0.12-0.23,0.29-0.41,0.52-0.53s0.5-0.18,0.82-0.18c0.3,0,0.56,0.07,0.77,0.21c0.21,0.14,0.38,0.34,0.49,0.6
		c0.11,0.26,0.17,0.57,0.17,0.94v0.22h-2.44v-0.52h1.76c-0.02-0.27-0.1-0.48-0.23-0.63c-0.13-0.15-0.31-0.22-0.53-0.22
		c-0.27,0-0.48,0.08-0.62,0.24c-0.15,0.16-0.22,0.39-0.22,0.68v0.42c0,0.27,0.08,0.48,0.24,0.63c0.16,0.15,0.38,0.22,0.67,0.22
		c0.14,0,0.29-0.03,0.43-0.08s0.27-0.13,0.38-0.22l0.47,0.42c-0.18,0.16-0.38,0.28-0.6,0.36c-0.22,0.09-0.45,0.13-0.67,0.13
		C79.86,194.28,79.58,194.22,79.34,194.11z"/>
	<path class="st1" d="M82.54,189.61h0.71v4.62h-0.71V189.61z M84.74,192.23c0-0.23-0.07-0.41-0.2-0.54s-0.32-0.19-0.56-0.19
		c-0.23,0-0.41,0.06-0.54,0.17c-0.13,0.11-0.19,0.27-0.19,0.47l-0.07-0.63c0.11-0.19,0.26-0.35,0.44-0.45
		c0.18-0.11,0.38-0.16,0.6-0.16c0.39,0,0.7,0.12,0.91,0.35c0.21,0.23,0.32,0.56,0.32,0.99v2h-0.71V192.23z"/>
	<path class="st1" d="M86.52,189.61h0.71v0.65h-0.71V189.61z M86.52,190.93h0.71v3.29h-0.71V190.93z"/>
	<path class="st1" d="M88.31,190.93h0.71v3.29h-0.71V190.93z M90.51,192.23c0-0.23-0.07-0.41-0.2-0.54
		c-0.13-0.13-0.32-0.19-0.56-0.19c-0.23,0-0.41,0.06-0.54,0.17c-0.13,0.11-0.19,0.27-0.19,0.47l-0.07-0.63
		c0.11-0.2,0.26-0.35,0.44-0.46c0.18-0.11,0.38-0.16,0.6-0.16c0.39,0,0.7,0.12,0.91,0.35c0.21,0.23,0.32,0.56,0.32,0.99v2h-0.71
		V192.23z"/>
	<path class="st1" d="M92.77,194.13c-0.19-0.11-0.33-0.26-0.43-0.46s-0.15-0.44-0.15-0.72v-0.73c0-0.28,0.05-0.53,0.14-0.73
		c0.09-0.2,0.23-0.35,0.42-0.46c0.18-0.1,0.4-0.16,0.66-0.16c0.21,0,0.41,0.05,0.59,0.15s0.32,0.24,0.43,0.43l-0.07,0.67
		c0-0.14-0.03-0.26-0.08-0.36c-0.06-0.1-0.14-0.17-0.24-0.23s-0.23-0.08-0.38-0.08c-0.23,0-0.42,0.07-0.54,0.2
		c-0.13,0.13-0.19,0.32-0.19,0.56v0.72c0,0.24,0.06,0.42,0.19,0.55s0.31,0.2,0.54,0.2c0.15,0,0.28-0.03,0.38-0.08
		s0.19-0.13,0.24-0.23s0.08-0.22,0.08-0.37l0.05,0.7c-0.07,0.16-0.19,0.3-0.35,0.41c-0.16,0.11-0.37,0.16-0.6,0.16
		C93.18,194.29,92.95,194.23,92.77,194.13z M94.35,189.61h0.71v4.62h-0.71V189.61z"/>
	<path class="st1" d="M98.77,193.38c0,0.08,0.02,0.14,0.06,0.19c0.04,0.04,0.09,0.07,0.16,0.07h0.33v0.62H98.9
		c-0.27,0-0.48-0.08-0.62-0.23s-0.22-0.37-0.22-0.64v-3.76h0.71V193.38z"/>
	<path class="st1" d="M100.7,194.11c-0.22-0.11-0.39-0.28-0.51-0.49s-0.18-0.47-0.18-0.78v-0.54c0-0.3,0.06-0.55,0.18-0.77
		c0.12-0.21,0.29-0.38,0.51-0.49c0.22-0.11,0.49-0.17,0.8-0.17s0.58,0.06,0.8,0.17c0.22,0.11,0.39,0.27,0.51,0.49
		c0.12,0.21,0.18,0.47,0.18,0.77v0.55c0,0.3-0.06,0.56-0.18,0.77c-0.12,0.21-0.29,0.38-0.51,0.49c-0.22,0.11-0.49,0.17-0.8,0.17
		S100.93,194.22,100.7,194.11z M102.08,193.45c0.14-0.14,0.2-0.34,0.2-0.6v-0.55c0-0.26-0.07-0.45-0.2-0.59s-0.33-0.21-0.58-0.21
		c-0.25,0-0.44,0.07-0.58,0.21c-0.14,0.14-0.2,0.34-0.2,0.59v0.55c0,0.26,0.07,0.45,0.2,0.6c0.14,0.14,0.33,0.21,0.58,0.21
		C101.76,193.66,101.95,193.59,102.08,193.45z"/>
	<path class="st1" d="M103.73,190.93h1.63v0.58h-1.63V190.93z M104.3,194.02c-0.14-0.15-0.2-0.36-0.2-0.65v-3.4h0.71v3.4
		c0,0.08,0.02,0.14,0.05,0.19c0.03,0.04,0.09,0.07,0.15,0.07h0.34v0.62h-0.41C104.66,194.25,104.44,194.17,104.3,194.02z"/>
	<path class="st1" d="M106.05,190.93h1.63v0.58h-1.63V190.93z M106.63,194.02c-0.14-0.15-0.2-0.36-0.2-0.65v-3.4h0.71v3.4
		c0,0.08,0.02,0.14,0.05,0.19c0.03,0.04,0.09,0.07,0.15,0.07h0.34v0.62h-0.41C106.98,194.25,106.77,194.17,106.63,194.02z"/>
	<path class="st1" d="M108.54,193.55h0.75v0.68h-0.75V193.55z"/>
	<path class="st1" d="M110.99,193.38c0,0.08,0.02,0.14,0.06,0.19c0.04,0.04,0.09,0.07,0.16,0.07h0.33v0.62h-0.42
		c-0.27,0-0.48-0.08-0.62-0.23s-0.22-0.37-0.22-0.64v-3.76h0.71V193.38z"/>
	<path class="st1" d="M112.34,189.61h0.71v0.65h-0.71V189.61z M112.34,190.93h0.71v3.29h-0.71V190.93z"/>
	<path class="st1" d="M114.13,190.93h0.71v3.29h-0.71V190.93z M116.32,192.23c0-0.23-0.07-0.41-0.2-0.54
		c-0.13-0.13-0.32-0.19-0.56-0.19c-0.23,0-0.41,0.06-0.54,0.17c-0.13,0.11-0.19,0.27-0.19,0.47l-0.07-0.63
		c0.11-0.2,0.26-0.35,0.44-0.46c0.18-0.11,0.38-0.16,0.6-0.16c0.39,0,0.7,0.12,0.91,0.35c0.21,0.23,0.32,0.56,0.32,0.99v2h-0.71
		V192.23z"/>
	<path class="st1" d="M118.11,189.61h0.71v4.62h-0.71V189.61z M118.42,192.98l1.86-2.04h0.84l-2.74,2.81L118.42,192.98z
		 M119.26,192.33l0.46-0.43l1.58,2.33h-0.77L119.26,192.33z"/>
</g>
<g>
	<path class="st1" d="M80.97,277.37h0.44v2.85h-0.44V277.37z M81.6,279.34c-0.1-0.06-0.18-0.15-0.23-0.26l0.03-0.42
		c0,0.09,0.02,0.16,0.05,0.22c0.03,0.06,0.08,0.11,0.15,0.14c0.06,0.03,0.14,0.05,0.24,0.05c0.14,0,0.26-0.04,0.34-0.12
		s0.12-0.19,0.12-0.34v-0.44c0-0.15-0.04-0.26-0.12-0.35s-0.19-0.12-0.34-0.12c-0.09,0-0.17,0.02-0.24,0.05
		c-0.07,0.03-0.12,0.08-0.15,0.14s-0.05,0.13-0.05,0.22l-0.04-0.39c0.07-0.12,0.15-0.21,0.26-0.27c0.11-0.06,0.23-0.1,0.36-0.1
		c0.16,0,0.29,0.03,0.4,0.1s0.2,0.16,0.26,0.28c0.06,0.12,0.09,0.27,0.09,0.45v0.44c0,0.17-0.03,0.32-0.09,0.44
		c-0.06,0.12-0.15,0.22-0.26,0.28c-0.12,0.06-0.25,0.1-0.42,0.1C81.82,279.43,81.7,279.4,81.6,279.34z"/>
	<path class="st1" d="M83.79,278.61c0,0.14,0.04,0.25,0.12,0.33c0.08,0.08,0.19,0.12,0.34,0.12c0.14,0,0.25-0.03,0.33-0.1
		c0.08-0.07,0.12-0.17,0.12-0.29l0.03,0.42c-0.04,0.1-0.12,0.18-0.22,0.25c-0.1,0.07-0.23,0.1-0.38,0.1c-0.25,0-0.44-0.07-0.57-0.22
		c-0.13-0.14-0.2-0.35-0.2-0.61v-1.23h0.44V278.61z M84.7,277.37h0.43v2.03H84.7V277.37z"/>
	<path class="st1" d="M85.79,276.56h0.44v2.84h-0.44V276.56z M86.43,279.34c-0.1-0.06-0.18-0.15-0.23-0.26l0.03-0.42
		c0,0.09,0.02,0.16,0.05,0.22c0.03,0.06,0.08,0.11,0.15,0.14c0.06,0.03,0.14,0.05,0.24,0.05c0.14,0,0.26-0.04,0.34-0.12
		s0.12-0.19,0.12-0.34v-0.44c0-0.15-0.04-0.26-0.12-0.35s-0.19-0.12-0.34-0.12c-0.09,0-0.17,0.02-0.24,0.05
		c-0.07,0.03-0.12,0.08-0.15,0.14s-0.05,0.13-0.05,0.22l-0.04-0.39c0.07-0.12,0.15-0.21,0.26-0.27c0.11-0.06,0.23-0.1,0.36-0.1
		c0.16,0,0.29,0.03,0.4,0.1s0.2,0.16,0.26,0.28c0.06,0.12,0.09,0.27,0.09,0.45v0.44c0,0.17-0.03,0.32-0.09,0.44
		c-0.06,0.12-0.15,0.22-0.26,0.28c-0.12,0.06-0.25,0.1-0.42,0.1C86.65,279.43,86.53,279.4,86.43,279.34z"/>
	<path class="st1" d="M88.62,278.88c0,0.05,0.01,0.09,0.04,0.11c0.02,0.03,0.06,0.04,0.1,0.04h0.21v0.38H88.7
		c-0.17,0-0.29-0.05-0.38-0.14c-0.09-0.09-0.14-0.23-0.14-0.4v-2.31h0.44V278.88z"/>
	<path class="st1" d="M89.45,276.56h0.44v0.4h-0.44V276.56z M89.45,277.37h0.44v2.03h-0.44V277.37z"/>
	<path class="st1" d="M90.97,279.4c-0.12-0.02-0.22-0.06-0.32-0.11c-0.1-0.05-0.19-0.11-0.28-0.18l0.26-0.29
		c0.12,0.08,0.24,0.15,0.36,0.19c0.12,0.04,0.24,0.06,0.35,0.06c0.17,0,0.3-0.02,0.39-0.07c0.09-0.05,0.13-0.12,0.13-0.22
		c0-0.06-0.02-0.11-0.07-0.15c-0.05-0.03-0.11-0.05-0.18-0.07c-0.07-0.01-0.17-0.02-0.3-0.03c-0.01,0-0.02,0-0.04,0
		c-0.01,0-0.03,0-0.04,0c-0.01,0-0.01,0-0.02,0c-0.01,0-0.01,0-0.02,0c-0.14-0.01-0.27-0.03-0.37-0.06
		c-0.1-0.03-0.18-0.08-0.25-0.16c-0.07-0.08-0.1-0.19-0.1-0.33c0-0.14,0.03-0.26,0.1-0.36c0.06-0.09,0.16-0.17,0.29-0.21
		c0.13-0.05,0.29-0.07,0.48-0.07c0.12,0,0.23,0.01,0.33,0.03c0.1,0.02,0.21,0.05,0.3,0.09c0.1,0.04,0.19,0.09,0.28,0.15L92,277.9
		c-0.11-0.06-0.22-0.11-0.33-0.15c-0.11-0.03-0.21-0.05-0.32-0.05c-0.15,0-0.26,0.02-0.33,0.07c-0.07,0.05-0.11,0.12-0.11,0.21
		c0,0.05,0.02,0.1,0.06,0.12s0.1,0.05,0.16,0.05c0.06,0.01,0.16,0.02,0.27,0.02c0.01,0,0.02,0,0.03,0c0.01,0,0.02,0,0.03,0
		c0,0,0.01,0,0.01,0c0,0,0.01,0,0.01,0c0.16,0.01,0.29,0.03,0.4,0.06c0.11,0.03,0.2,0.09,0.28,0.17c0.07,0.08,0.11,0.21,0.11,0.37
		c0,0.15-0.03,0.27-0.1,0.36c-0.07,0.1-0.17,0.17-0.31,0.22c-0.14,0.05-0.31,0.07-0.52,0.07C91.21,279.43,91.09,279.42,90.97,279.4z
		"/>
	<path class="st1" d="M92.83,276.56h0.44v2.84h-0.44V276.56z M94.18,278.17c0-0.14-0.04-0.25-0.12-0.33
		c-0.08-0.08-0.2-0.12-0.34-0.12c-0.14,0-0.25,0.03-0.33,0.1c-0.08,0.07-0.12,0.16-0.12,0.29l-0.04-0.39
		c0.07-0.12,0.16-0.21,0.27-0.28c0.11-0.07,0.23-0.1,0.37-0.1c0.24,0,0.43,0.07,0.56,0.22c0.13,0.14,0.2,0.35,0.2,0.61v1.23h-0.44
		V278.17z"/>
	<path class="st1" d="M96.46,276.56h0.44v2.84h-0.44V276.56z M97.09,279.34c-0.1-0.06-0.18-0.15-0.23-0.26l0.03-0.42
		c0,0.09,0.02,0.16,0.05,0.22c0.03,0.06,0.08,0.11,0.15,0.14c0.06,0.03,0.14,0.05,0.24,0.05c0.14,0,0.26-0.04,0.34-0.12
		s0.12-0.19,0.12-0.34v-0.44c0-0.15-0.04-0.26-0.12-0.35s-0.19-0.12-0.34-0.12c-0.09,0-0.17,0.02-0.24,0.05
		c-0.07,0.03-0.12,0.08-0.15,0.14s-0.05,0.13-0.05,0.22l-0.04-0.39c0.07-0.12,0.15-0.21,0.26-0.27c0.11-0.06,0.23-0.1,0.36-0.1
		c0.16,0,0.29,0.03,0.4,0.1s0.2,0.16,0.26,0.28c0.06,0.12,0.09,0.27,0.09,0.45v0.44c0,0.17-0.03,0.32-0.09,0.44
		c-0.06,0.12-0.15,0.22-0.26,0.28c-0.12,0.06-0.25,0.1-0.42,0.1C97.32,279.43,97.2,279.4,97.09,279.34z"/>
	<path class="st1" d="M98.61,277.37h0.45l0.68,1.76l-0.24,0.43L98.61,277.37z M100.58,277.37l-0.95,2.5
		c-0.03,0.09-0.08,0.17-0.13,0.22c-0.06,0.05-0.12,0.09-0.21,0.12c-0.08,0.02-0.18,0.04-0.3,0.04H98.9v-0.38h0.09
		c0.08,0,0.15-0.01,0.19-0.04c0.05-0.03,0.09-0.08,0.12-0.15l0.82-2.29H100.58z"/>
	<path class="st1" d="M102.58,278.88c0,0.05,0.01,0.09,0.04,0.11c0.02,0.03,0.06,0.04,0.1,0.04h0.21v0.38h-0.26
		c-0.17,0-0.29-0.05-0.38-0.14c-0.09-0.09-0.14-0.23-0.14-0.4v-2.31h0.44V278.88z"/>
	<path class="st1" d="M103.77,279.33c-0.14-0.07-0.24-0.17-0.31-0.3c-0.07-0.13-0.11-0.29-0.11-0.48v-0.33
		c0-0.18,0.04-0.34,0.11-0.47s0.18-0.23,0.31-0.3c0.14-0.07,0.3-0.1,0.49-0.1c0.19,0,0.36,0.03,0.5,0.1
		c0.14,0.07,0.24,0.17,0.31,0.3s0.11,0.29,0.11,0.47v0.34c0,0.19-0.04,0.34-0.11,0.47s-0.18,0.23-0.31,0.3
		c-0.14,0.07-0.3,0.1-0.5,0.1C104.08,279.43,103.91,279.4,103.77,279.33z M104.62,278.92c0.08-0.09,0.12-0.21,0.12-0.37v-0.34
		c0-0.16-0.04-0.28-0.12-0.37c-0.08-0.09-0.2-0.13-0.36-0.13c-0.15,0-0.27,0.04-0.35,0.13c-0.08,0.09-0.12,0.21-0.12,0.37v0.34
		c0,0.16,0.04,0.28,0.12,0.37c0.08,0.09,0.2,0.13,0.35,0.13C104.42,279.05,104.54,279.01,104.62,278.92z"/>
	<path class="st1" d="M105.63,277.37h1v0.36h-1V277.37z M105.99,279.28c-0.08-0.09-0.13-0.22-0.13-0.4v-2.09h0.44v2.09
		c0,0.05,0.01,0.09,0.03,0.11c0.02,0.03,0.05,0.04,0.09,0.04h0.21v0.38h-0.25C106.2,279.41,106.07,279.37,105.99,279.28z"/>
	<path class="st1" d="M107.07,277.37h1v0.36h-1V277.37z M107.42,279.28c-0.08-0.09-0.13-0.22-0.13-0.4v-2.09h0.44v2.09
		c0,0.05,0.01,0.09,0.03,0.11c0.02,0.03,0.05,0.04,0.09,0.04h0.21v0.38h-0.25C107.64,279.41,107.5,279.37,107.42,279.28z"/>
	<path class="st1" d="M108.59,278.98h0.46v0.42h-0.46V278.98z"/>
	<path class="st1" d="M110.1,278.88c0,0.05,0.01,0.09,0.04,0.11c0.02,0.03,0.06,0.04,0.1,0.04h0.21v0.38h-0.26
		c-0.17,0-0.29-0.05-0.38-0.14c-0.09-0.09-0.14-0.23-0.14-0.4v-2.31h0.44V278.88z"/>
	<path class="st1" d="M110.93,276.56h0.44v0.4h-0.44V276.56z M110.93,277.37h0.44v2.03h-0.44V277.37z"/>
	<path class="st1" d="M112.04,277.37h0.44v2.03h-0.44V277.37z M113.38,278.17c0-0.14-0.04-0.25-0.12-0.33
		c-0.08-0.08-0.2-0.12-0.34-0.12c-0.14,0-0.25,0.04-0.33,0.1c-0.08,0.07-0.12,0.17-0.12,0.29l-0.04-0.39
		c0.07-0.12,0.16-0.22,0.27-0.28s0.23-0.1,0.37-0.1c0.24,0,0.43,0.07,0.56,0.22c0.13,0.14,0.2,0.35,0.2,0.61v1.23h-0.44V278.17z"/>
	<path class="st1" d="M114.49,276.56h0.44v2.84h-0.44V276.56z M114.67,278.63l1.14-1.26h0.51l-1.69,1.73L114.67,278.63z
		 M115.19,278.23l0.28-0.27l0.97,1.44h-0.48L115.19,278.23z"/>
</g>
<g>
	<path class="st1" d="M72.32,204.44h0.47l0.81,1.02l0.81-1.02h0.47l-1.04,1.32l1.17,1.47h-0.48l-0.93-1.17l-0.93,1.17h-0.47
		l1.16-1.47L72.32,204.44z"/>
	<path class="st1" d="M75.08,204.44h0.47l0.81,1.02l0.81-1.02h0.47l-1.04,1.32l1.17,1.47H77.3l-0.93-1.17l-0.93,1.17h-0.47
		l1.16-1.47L75.08,204.44z"/>
	<path class="st1" d="M77.85,204.44h0.47l0.81,1.02l0.81-1.02h0.47l-1.04,1.32l1.17,1.47h-0.48l-0.93-1.17l-0.93,1.17h-0.47
		l1.16-1.47L77.85,204.44z"/>
	<path class="st1" d="M80.61,204.44h0.47l0.81,1.02l0.81-1.02h0.47l-1.04,1.32l1.17,1.47h-0.48l-0.93-1.17l-0.93,1.17H80.5
		l1.16-1.47L80.61,204.44z"/>
	<path class="st1" d="M83.37,204.44h0.47l0.81,1.02l0.81-1.02h0.47l-1.04,1.32l1.17,1.47h-0.48l-0.93-1.17l-0.93,1.17h-0.47
		l1.16-1.47L83.37,204.44z"/>
	<path class="st1" d="M86.14,204.44h0.47l0.81,1.02l0.81-1.02h0.47l-1.04,1.32l1.17,1.47h-0.48l-0.93-1.17l-0.93,1.17h-0.47
		l1.16-1.47L86.14,204.44z"/>
	<path class="st1" d="M88.9,204.44h0.47l0.81,1.02l0.81-1.02h0.47l-1.04,1.32l1.17,1.47h-0.48l-0.93-1.17l-0.93,1.17h-0.47
		l1.16-1.47L88.9,204.44z"/>
	<path class="st1" d="M91.66,204.44h0.47l0.81,1.02l0.81-1.02h0.47l-1.04,1.32l1.17,1.47h-0.48l-0.93-1.17l-0.93,1.17h-0.47
		l1.16-1.47L91.66,204.44z"/>
	<path class="st1" d="M72.32,216.25h0.47l0.81,1.02l0.81-1.02h0.47l-1.04,1.32l1.17,1.47h-0.48l-0.93-1.17l-0.93,1.17h-0.47
		l1.16-1.47L72.32,216.25z"/>
	<path class="st1" d="M75.08,216.25h0.47l0.81,1.02l0.81-1.02h0.47l-1.04,1.32l1.17,1.47H77.3l-0.93-1.17l-0.93,1.17h-0.47
		l1.16-1.47L75.08,216.25z"/>
	<path class="st1" d="M77.85,216.25h0.47l0.81,1.02l0.81-1.02h0.47l-1.04,1.32l1.17,1.47h-0.48l-0.93-1.17l-0.93,1.17h-0.47
		l1.16-1.47L77.85,216.25z"/>
	<path class="st1" d="M80.61,216.25h0.47l0.81,1.02l0.81-1.02h0.47l-1.04,1.32l1.17,1.47h-0.48l-0.93-1.17l-0.93,1.17H80.5
		l1.16-1.47L80.61,216.25z"/>
	<path class="st1" d="M83.37,216.25h0.47l0.81,1.02l0.81-1.02h0.47l-1.04,1.32l1.17,1.47h-0.48l-0.93-1.17l-0.93,1.17h-0.47
		l1.16-1.47L83.37,216.25z"/>
	<path class="st1" d="M86.14,216.25h0.47l0.81,1.02l0.81-1.02h0.47l-1.04,1.32l1.17,1.47h-0.48l-0.93-1.17l-0.93,1.17h-0.47
		l1.16-1.47L86.14,216.25z"/>
	<path class="st1" d="M88.9,216.25h0.47l0.81,1.02l0.81-1.02h0.47l-1.04,1.32l1.17,1.47h-0.48l-0.93-1.17l-0.93,1.17h-0.47
		l1.16-1.47L88.9,216.25z"/>
	<path class="st1" d="M91.66,216.25h0.47l0.81,1.02l0.81-1.02h0.47l-1.04,1.32l1.17,1.47h-0.48l-0.93-1.17l-0.93,1.17h-0.47
		l1.16-1.47L91.66,216.25z"/>
	<path class="st1" d="M72.32,228.05h0.47l0.81,1.02l0.81-1.02h0.47l-1.04,1.32l1.17,1.47h-0.48l-0.93-1.17l-0.93,1.17h-0.47
		l1.16-1.47L72.32,228.05z"/>
	<path class="st1" d="M75.08,228.05h0.47l0.81,1.02l0.81-1.02h0.47l-1.04,1.32l1.17,1.47H77.3l-0.93-1.17l-0.93,1.17h-0.47
		l1.16-1.47L75.08,228.05z"/>
	<path class="st1" d="M77.85,228.05h0.47l0.81,1.02l0.81-1.02h0.47l-1.04,1.32l1.17,1.47h-0.48l-0.93-1.17l-0.93,1.17h-0.47
		l1.16-1.47L77.85,228.05z"/>
	<path class="st1" d="M80.61,228.05h0.47l0.81,1.02l0.81-1.02h0.47l-1.04,1.32l1.17,1.47h-0.48l-0.93-1.17l-0.93,1.17H80.5
		l1.16-1.47L80.61,228.05z"/>
	<path class="st1" d="M83.37,228.05h0.47l0.81,1.02l0.81-1.02h0.47l-1.04,1.32l1.17,1.47h-0.48l-0.93-1.17l-0.93,1.17h-0.47
		l1.16-1.47L83.37,228.05z"/>
	<path class="st1" d="M86.14,228.05h0.47l0.81,1.02l0.81-1.02h0.47l-1.04,1.32l1.17,1.47h-0.48l-0.93-1.17l-0.93,1.17h-0.47
		l1.16-1.47L86.14,228.05z"/>
	<path class="st1" d="M88.9,228.05h0.47l0.81,1.02l0.81-1.02h0.47l-1.04,1.32l1.17,1.47h-0.48l-0.93-1.17l-0.93,1.17h-0.47
		l1.16-1.47L88.9,228.05z"/>
	<path class="st1" d="M91.66,228.05h0.47l0.81,1.02l0.81-1.02h0.47l-1.04,1.32l1.17,1.47h-0.48l-0.93-1.17l-0.93,1.17h-0.47
		l1.16-1.47L91.66,228.05z"/>
</g>
<g>
	<path class="st1" d="M115.63,204.44h0.47l0.81,1.02l0.8-1.02h0.47l-1.04,1.32l1.17,1.47h-0.48l-0.93-1.17l-0.93,1.17h-0.47
		l1.16-1.47L115.63,204.44z"/>
	<path class="st1" d="M118.4,204.44h0.47l0.81,1.02l0.81-1.02h0.47l-1.04,1.32l1.17,1.47h-0.48l-0.93-1.17l-0.92,1.17h-0.47
		l1.16-1.47L118.4,204.44z"/>
	<path class="st1" d="M121.16,204.44h0.47l0.81,1.02l0.8-1.02h0.47l-1.04,1.32l1.17,1.47h-0.48l-0.93-1.17l-0.93,1.17h-0.47
		l1.16-1.47L121.16,204.44z"/>
	<path class="st1" d="M123.92,204.44h0.47l0.81,1.02l0.81-1.02h0.47l-1.04,1.32l1.17,1.47h-0.48l-0.93-1.17l-0.92,1.17h-0.47
		l1.16-1.47L123.92,204.44z"/>
	<path class="st1" d="M126.69,204.44h0.47l0.81,1.02l0.8-1.02h0.47l-1.04,1.32l1.17,1.47h-0.48l-0.93-1.17l-0.93,1.17h-0.47
		l1.16-1.47L126.69,204.44z"/>
	<path class="st1" d="M129.45,204.44h0.47l0.81,1.02l0.81-1.02h0.47l-1.04,1.32l1.17,1.47h-0.48l-0.93-1.17l-0.92,1.17h-0.47
		l1.16-1.47L129.45,204.44z"/>
	<path class="st1" d="M132.21,204.44h0.47l0.81,1.02l0.8-1.02h0.47l-1.04,1.32l1.17,1.47h-0.48l-0.93-1.17l-0.93,1.17h-0.47
		l1.16-1.47L132.21,204.44z"/>
	<path class="st1" d="M134.98,204.44h0.47l0.81,1.02l0.81-1.02h0.47l-1.04,1.32l1.17,1.47h-0.48l-0.93-1.17l-0.92,1.17h-0.47
		l1.16-1.47L134.98,204.44z"/>
	<path class="st1" d="M115.63,216.25h0.47l0.81,1.02l0.8-1.02h0.47l-1.04,1.32l1.17,1.47h-0.48l-0.93-1.17l-0.93,1.17h-0.47
		l1.16-1.47L115.63,216.25z"/>
	<path class="st1" d="M118.4,216.25h0.47l0.81,1.02l0.81-1.02h0.47l-1.04,1.32l1.17,1.47h-0.48l-0.93-1.17l-0.92,1.17h-0.47
		l1.16-1.47L118.4,216.25z"/>
	<path class="st1" d="M121.16,216.25h0.47l0.81,1.02l0.8-1.02h0.47l-1.04,1.32l1.17,1.47h-0.48l-0.93-1.17l-0.93,1.17h-0.47
		l1.16-1.47L121.16,216.25z"/>
	<path class="st1" d="M123.92,216.25h0.47l0.81,1.02l0.81-1.02h0.47l-1.04,1.32l1.17,1.47h-0.48l-0.93-1.17l-0.92,1.17h-0.47
		l1.16-1.47L123.92,216.25z"/>
	<path class="st1" d="M126.69,216.25h0.47l0.81,1.02l0.8-1.02h0.47l-1.04,1.32l1.17,1.47h-0.48l-0.93-1.17l-0.93,1.17h-0.47
		l1.16-1.47L126.69,216.25z"/>
	<path class="st1" d="M129.45,216.25h0.47l0.81,1.02l0.81-1.02h0.47l-1.04,1.32l1.17,1.47h-0.48l-0.93-1.17l-0.92,1.17h-0.47
		l1.16-1.47L129.45,216.25z"/>
	<path class="st1" d="M132.21,216.25h0.47l0.81,1.02l0.8-1.02h0.47l-1.04,1.32l1.17,1.47h-0.48l-0.93-1.17l-0.93,1.17h-0.47
		l1.16-1.47L132.21,216.25z"/>
	<path class="st1" d="M134.98,216.25h0.47l0.81,1.02l0.81-1.02h0.47l-1.04,1.32l1.17,1.47h-0.48l-0.93-1.17l-0.92,1.17h-0.47
		l1.16-1.47L134.98,216.25z"/>
	<path class="st1" d="M115.63,228.05h0.47l0.81,1.02l0.8-1.02h0.47l-1.04,1.32l1.17,1.47h-0.48l-0.93-1.17l-0.93,1.17h-0.47
		l1.16-1.47L115.63,228.05z"/>
	<path class="st1" d="M118.4,228.05h0.47l0.81,1.02l0.81-1.02h0.47l-1.04,1.32l1.17,1.47h-0.48l-0.93-1.17l-0.92,1.17h-0.47
		l1.16-1.47L118.4,228.05z"/>
	<path class="st1" d="M121.16,228.05h0.47l0.81,1.02l0.8-1.02h0.47l-1.04,1.32l1.17,1.47h-0.48l-0.93-1.17l-0.93,1.17h-0.47
		l1.16-1.47L121.16,228.05z"/>
	<path class="st1" d="M123.92,228.05h0.47l0.81,1.02l0.81-1.02h0.47l-1.04,1.32l1.17,1.47h-0.48l-0.93-1.17l-0.92,1.17h-0.47
		l1.16-1.47L123.92,228.05z"/>
	<path class="st1" d="M126.69,228.05h0.47l0.81,1.02l0.8-1.02h0.47l-1.04,1.32l1.17,1.47h-0.48l-0.93-1.17l-0.93,1.17h-0.47
		l1.16-1.47L126.69,228.05z"/>
	<path class="st1" d="M129.45,228.05h0.47l0.81,1.02l0.81-1.02h0.47l-1.04,1.32l1.17,1.47h-0.48l-0.93-1.17l-0.92,1.17h-0.47
		l1.16-1.47L129.45,228.05z"/>
	<path class="st1" d="M132.21,228.05h0.47l0.81,1.02l0.8-1.02h0.47l-1.04,1.32l1.17,1.47h-0.48l-0.93-1.17l-0.93,1.17h-0.47
		l1.16-1.47L132.21,228.05z"/>
	<path class="st1" d="M134.98,228.05h0.47l0.81,1.02l0.81-1.02h0.47l-1.04,1.32l1.17,1.47h-0.48l-0.93-1.17l-0.92,1.17h-0.47
		l1.16-1.47L134.98,228.05z"/>
</g>
<g>
	<path class="st1" d="M122.41,94.88l-19.28-11.13c-3.29-1.9-7.35-1.9-10.64,0L73.2,94.88c-3.29,1.9-5.32,5.42-5.32,9.22v22.26
		c0,3.8,2.03,7.32,5.32,9.22l19.28,11.13c3.29,1.9,7.35,1.9,10.64,0l19.28-11.13c3.29-1.9,5.32-5.42,5.32-9.22V104.1
		C127.73,100.3,125.7,96.79,122.41,94.88z"/>
</g>
<g>
	<path class="st2" d="M124.98,92.51l-21.3-12.29c-3.64-2.1-8.12-2.1-11.76,0l-21.3,12.29c-3.64,2.1-5.88,5.98-5.88,10.18v24.59
		c0,4.2,2.24,8.08,5.88,10.18l21.3,12.29c3.64,2.1,8.12,2.1,11.76,0l21.3-12.29c3.64-2.1,5.88-5.98,5.88-10.18v-24.59
		C130.86,98.49,128.62,94.61,124.98,92.51z"/>
</g>
<g>
	<path class="st0" d="M97.01,115.75c-6.55,0-11.87-5.33-11.87-11.87S90.46,92,97.01,92s11.87,5.33,11.87,11.87
		S103.55,115.75,97.01,115.75z M97.01,94.55c-5.14,0-9.33,4.18-9.33,9.33s4.18,9.33,9.33,9.33s9.33-4.18,9.33-9.33
		S102.15,94.55,97.01,94.55z"/>
</g>
<g>
	<path class="st0" d="M97.01,136.76c-3.58,0-6.94-0.51-9.46-1.44c-4.19-1.54-5.08-3.84-5.08-5.49c0-8.02,6.52-14.54,14.54-14.54
		s14.54,6.52,14.54,14.54C111.54,134.95,103.71,136.76,97.01,136.76z M97.01,118.41c-6.3,0-11.42,5.12-11.42,11.42
		c0,1.84,4.59,3.82,11.42,3.82s11.42-1.97,11.42-3.82C108.43,123.53,103.31,118.41,97.01,118.41z"/>
</g>
<g class="st3">
	<path class="st1" d="M71.76,115.59c0-15.26,12.37-27.64,27.64-27.64S71.76,130.86,71.76,115.59z"/>
</g>
<rect x="6.96" y="6.61" class="st2" width="184.5" height="264.89"/>
<g>
	<g id="XMLID_4_">
		<path class="st1" d="M61.89,222.47c-2.79,0-5.06-2.27-5.06-5.06s2.27-5.06,5.06-5.06c2.79,0,5.06,2.27,5.06,5.06
			S64.68,222.47,61.89,222.47z M61.89,212.44c-2.74,0-4.97,2.23-4.97,4.97s2.23,4.97,4.97,4.97c2.74,0,4.97-2.23,4.97-4.97
			S64.63,212.44,61.89,212.44z"/>
	</g>
	<g id="XMLID_810_">
		<g id="XMLID_811_">
			<path class="st4" d="M64.04,218.34c-0.12-0.06-0.7-0.34-0.81-0.38c-0.11-0.04-0.19-0.06-0.27,0.06
				c-0.08,0.12-0.31,0.38-0.37,0.46c-0.07,0.08-0.14,0.09-0.26,0.03c-0.12-0.06-0.5-0.18-0.95-0.58c-0.35-0.31-0.59-0.69-0.65-0.81
				c-0.07-0.12-0.01-0.18,0.05-0.24c0.05-0.05,0.12-0.14,0.18-0.2c0.02-0.02,0.03-0.04,0.04-0.06c0.03-0.04,0.05-0.08,0.07-0.14
				c0.04-0.08,0.02-0.15-0.01-0.2c-0.03-0.06-0.27-0.63-0.36-0.87c-0.1-0.23-0.2-0.19-0.27-0.19c-0.07,0-0.15-0.01-0.22-0.01
				c-0.08,0-0.21,0.03-0.31,0.15c-0.11,0.12-0.41,0.4-0.41,0.98c0,0.13,0.02,0.27,0.06,0.4c0.12,0.41,0.38,0.75,0.42,0.81
				c0.06,0.08,0.81,1.3,2.01,1.77c1.2,0.47,1.2,0.31,1.41,0.29c0.22-0.02,0.7-0.28,0.79-0.56c0.1-0.27,0.1-0.51,0.07-0.56
				C64.23,218.43,64.15,218.4,64.04,218.34z"/>
		</g>
	</g>
</g>
<g>
	<g>
		<g id="XMLID_696_">
			<path class="st1" d="M105.88,221.95c-2.79,0-5.06-2.27-5.06-5.06s2.27-5.06,5.06-5.06s5.06,2.27,5.06,5.06
				S108.67,221.95,105.88,221.95z M105.88,211.92c-2.74,0-4.97,2.23-4.97,4.97c0,2.74,2.23,4.97,4.97,4.97s4.97-2.23,4.97-4.97
				C110.85,214.15,108.62,211.92,105.88,211.92z"/>
		</g>
	</g>
	<g id="XMLID_649_">
		<g id="XMLID_656_">
			<path class="st1" d="M105.88,214.89c0.65,0,0.73,0,0.99,0.01c0.24,0.01,0.37,0.05,0.45,0.08c0.11,0.04,0.2,0.1,0.28,0.18
				c0.09,0.09,0.14,0.17,0.18,0.28c0.03,0.09,0.07,0.21,0.08,0.45c0.01,0.26,0.01,0.33,0.01,0.99c0,0.65,0,0.73-0.01,0.99
				c-0.01,0.24-0.05,0.37-0.08,0.45c-0.04,0.11-0.1,0.2-0.18,0.28c-0.09,0.09-0.17,0.14-0.28,0.18c-0.09,0.03-0.22,0.07-0.45,0.08
				c-0.26,0.01-0.33,0.01-0.99,0.01c-0.65,0-0.73,0-0.99-0.01c-0.24-0.01-0.37-0.05-0.45-0.08c-0.11-0.04-0.19-0.1-0.28-0.18
				c-0.09-0.09-0.14-0.17-0.18-0.28c-0.03-0.09-0.07-0.21-0.08-0.45c-0.01-0.26-0.01-0.33-0.01-0.99c0-0.65,0-0.73,0.01-0.99
				c0.01-0.24,0.05-0.37,0.08-0.45c0.04-0.11,0.1-0.19,0.18-0.28c0.09-0.09,0.17-0.14,0.28-0.18c0.09-0.03,0.22-0.07,0.45-0.08
				C105.15,214.89,105.23,214.89,105.88,214.89 M105.88,214.45c-0.66,0-0.75,0-1.01,0.01c-0.26,0.01-0.44,0.05-0.59,0.11
				c-0.16,0.06-0.3,0.15-0.43,0.28c-0.14,0.14-0.22,0.27-0.28,0.43c-0.06,0.16-0.1,0.33-0.11,0.59c-0.01,0.26-0.01,0.34-0.01,1.01
				s0,0.75,0.01,1.01c0.01,0.26,0.05,0.44,0.11,0.59c0.06,0.16,0.15,0.3,0.28,0.43c0.14,0.14,0.27,0.22,0.43,0.28
				c0.16,0.06,0.33,0.1,0.59,0.11c0.26,0.01,0.34,0.01,1.01,0.01s0.75,0,1.01-0.01c0.26-0.01,0.44-0.05,0.59-0.11
				c0.16-0.06,0.3-0.15,0.43-0.28c0.14-0.14,0.22-0.27,0.28-0.43c0.06-0.16,0.1-0.33,0.11-0.59c0.01-0.26,0.01-0.34,0.01-1.01
				s0-0.75-0.01-1.01c-0.01-0.26-0.05-0.44-0.11-0.59c-0.06-0.16-0.15-0.3-0.28-0.43c-0.14-0.14-0.27-0.22-0.43-0.28
				c-0.16-0.06-0.33-0.1-0.59-0.11C106.63,214.45,106.54,214.45,105.88,214.45"/>
		</g>
		<g id="XMLID_653_">
			<path class="st1" d="M105.88,215.64c-0.69,0-1.25,0.56-1.25,1.25s0.56,1.25,1.25,1.25c0.69,0,1.25-0.56,1.25-1.25
				S106.57,215.64,105.88,215.64 M105.88,217.7c-0.45,0-0.81-0.36-0.81-0.81c0-0.45,0.36-0.81,0.81-0.81s0.81,0.36,0.81,0.81
				C106.69,217.34,106.33,217.7,105.88,217.7"/>
		</g>
		<g id="XMLID_652_">
			<path class="st1" d="M107.47,215.59c0,0.16-0.13,0.29-0.29,0.29c-0.16,0-0.29-0.13-0.29-0.29c0-0.16,0.13-0.29,0.29-0.29
				C107.34,215.29,107.47,215.43,107.47,215.59"/>
		</g>
	</g>
</g>
<g>
	<g id="XMLID_14_">
		<path class="st1" d="M61.89,210.84c-2.79,0-5.06-2.27-5.06-5.06c0-2.79,2.27-5.06,5.06-5.06c2.79,0,5.06,2.27,5.06,5.06
			C66.95,208.57,64.68,210.84,61.89,210.84z M61.89,200.81c-2.74,0-4.97,2.23-4.97,4.97c0,2.74,2.23,4.97,4.97,4.97
			c2.74,0,4.97-2.23,4.97-4.97C66.85,203.04,64.63,200.81,61.89,200.81z"/>
	</g>
</g>
<g>
	<g>
		<g id="XMLID_11_">
			<path class="st1" d="M105.88,210.31c-2.79,0-5.06-2.27-5.06-5.06s2.27-5.06,5.06-5.06s5.06,2.27,5.06,5.06
				S108.67,210.31,105.88,210.31z M105.88,200.28c-2.74,0-4.97,2.23-4.97,4.97s2.23,4.97,4.97,4.97s4.97-2.23,4.97-4.97
				S108.62,200.28,105.88,200.28z"/>
		</g>
	</g>
</g>
<g>
	<g id="XMLID_699_">
		<path class="st1" d="M105.88,233.89c-2.79,0-5.06-2.27-5.06-5.06s2.27-5.06,5.06-5.06s5.06,2.27,5.06,5.06
			S108.67,233.89,105.88,233.89z M105.88,223.86c-2.74,0-4.97,2.23-4.97,4.97s2.23,4.97,4.97,4.97s4.97-2.23,4.97-4.97
			S108.62,223.86,105.88,223.86z"/>
	</g>
	<g id="XMLID_659_">
		<path class="st1" d="M105.2,231.51h1.08v-2.71h0.76l0.08-0.91h-0.84c0,0,0-0.34,0-0.52c0-0.21,0.04-0.3,0.25-0.3
			c0.17,0,0.59,0,0.59,0v-0.94c0,0-0.62,0-0.75,0c-0.81,0-1.17,0.35-1.17,1.03c0,0.59,0,0.72,0,0.72h-0.56v0.92h0.56V231.51z"/>
	</g>
</g>
<g>
	<g id="XMLID_2_">
		<path class="st1" d="M61.89,233.98c-2.79,0-5.06-2.27-5.06-5.06s2.27-5.06,5.06-5.06s5.06,2.27,5.06,5.06
			S64.68,233.98,61.89,233.98z M61.89,223.95c-2.74,0-4.97,2.23-4.97,4.97s2.23,4.97,4.97,4.97c2.74,0,4.97-2.23,4.97-4.97
			S64.63,223.95,61.89,223.95z"/>
	</g>
</g>
<path class="st1" d="M108,203.42c-0.02-0.06-0.04-0.07-0.08-0.09c-0.08-0.03-0.21,0.01-0.21,0.01s-4.71,1.69-4.98,1.88
	c-0.06,0.04-0.08,0.06-0.09,0.09c-0.05,0.13,0.1,0.19,0.1,0.19l1.21,0.4c0,0,0.05,0.01,0.06,0c0.28-0.17,2.78-1.76,2.93-1.81
	c0.02-0.01,0.04,0,0.04,0.02c-0.06,0.2-2.23,2.14-2.23,2.14s-0.01,0.01-0.01,0.02l0,0l-0.11,1.21c0,0-0.05,0.37,0.32,0
	c0.26-0.26,0.51-0.48,0.64-0.58c0.42,0.29,0.87,0.61,1.06,0.77c0.1,0.08,0.18,0.1,0.25,0.09c0.18-0.01,0.24-0.21,0.24-0.21
	s0.86-3.46,0.89-3.92c0-0.05,0.01-0.07,0.01-0.11C108.01,203.48,108,203.44,108,203.42z"/>
<g>
	<path class="st1" d="M64.94,207.06c0.12-0.33,0.18-0.69,0.18-1.06c0-0.37-0.06-0.73-0.18-1.06c0-0.01-0.01-0.02-0.01-0.03
		c-0.45-1.25-1.64-2.14-3.04-2.14s-2.59,0.89-3.04,2.14c0,0.01-0.01,0.02-0.01,0.03c-0.12,0.33-0.18,0.69-0.18,1.06
		c0,0.37,0.06,0.73,0.18,1.06c0,0.01,0.01,0.02,0.01,0.03c0.45,1.25,1.64,2.14,3.04,2.14s2.59-0.89,3.04-2.14
		C64.93,207.08,64.94,207.07,64.94,207.06L64.94,207.06z M61.89,208.76c-0.12,0-0.32-0.22-0.49-0.72c-0.08-0.24-0.14-0.52-0.19-0.82
		h1.36c-0.05,0.3-0.11,0.58-0.19,0.82C62.21,208.54,62.01,208.76,61.89,208.76L61.89,208.76z M61.15,206.76
		c-0.02-0.25-0.03-0.5-0.03-0.77c0-0.26,0.01-0.52,0.03-0.77h1.47c0.02,0.25,0.03,0.5,0.03,0.77c0,0.26-0.01,0.52-0.03,0.77H61.15z
		 M59.12,205.99c0-0.27,0.04-0.52,0.11-0.77h1.46c-0.02,0.25-0.03,0.51-0.03,0.77c0,0.26,0.01,0.52,0.03,0.77h-1.46
		C59.16,206.52,59.12,206.26,59.12,205.99L59.12,205.99z M61.89,203.23c0.12,0,0.32,0.22,0.49,0.72c0.08,0.24,0.14,0.52,0.19,0.82
		h-1.36c0.05-0.3,0.11-0.58,0.19-0.82C61.57,203.45,61.76,203.23,61.89,203.23L61.89,203.23z M63.09,205.23h1.46
		c0.07,0.24,0.11,0.5,0.11,0.77c0,0.27-0.04,0.52-0.11,0.77h-1.46c0.02-0.25,0.03-0.51,0.03-0.77
		C63.12,205.74,63.11,205.48,63.09,205.23L63.09,205.23z M64.37,204.76h-1.33c-0.08-0.57-0.22-1.08-0.42-1.44
		C63.38,203.53,64.02,204.06,64.37,204.76L64.37,204.76z M61.16,203.32c-0.2,0.36-0.34,0.87-0.42,1.44h-1.33
		C59.76,204.06,60.39,203.53,61.16,203.32L61.16,203.32z M59.41,207.23h1.33c0.08,0.57,0.22,1.08,0.42,1.44
		C60.39,208.46,59.76,207.93,59.41,207.23L59.41,207.23z M62.61,208.67c0.2-0.36,0.34-0.87,0.42-1.44h1.33
		C64.02,207.93,63.38,208.46,62.61,208.67L62.61,208.67z M62.61,208.67"/>
</g>
<g>
	<g>
		<path class="st1" d="M61.89,230.1l-0.75-0.66l-2.15,1.84c0.08,0.07,0.18,0.12,0.3,0.12h5.2c0.12,0,0.22-0.05,0.3-0.12l-2.15-1.84
			L61.89,230.1z"/>
		<path class="st1" d="M64.79,227.18c-0.08-0.07-0.18-0.12-0.3-0.12h-5.2c-0.12,0-0.22,0.05-0.3,0.12l2.9,2.49L64.79,227.18z"/>
		<polygon class="st1" points="58.85,227.44 58.85,231.05 60.95,229.27 		"/>
		<polygon class="st1" points="62.83,229.27 64.93,231.05 64.93,227.44 		"/>
	</g>
</g>
<line class="st2" x1="62.67" y1="62.21" x2="132.94" y2="62.21"/>
<g>
	<g>
		<path class="st1" d="M87.07,30.18l-6.37-3.68c-1.09-0.63-2.43-0.63-3.52,0l-6.37,3.68c-1.09,0.63-1.76,1.79-1.76,3.05v7.36
			c0,1.26,0.67,2.42,1.76,3.05l6.37,3.68c1.09,0.63,2.43,0.63,3.52,0l6.37-3.68c1.09-0.63,1.76-1.79,1.76-3.05v-7.36
			C88.83,31.97,88.16,30.81,87.07,30.18z M78.93,45.59c-4.79,0-8.68-3.88-8.68-8.68s3.88-8.68,8.68-8.68s8.68,3.88,8.68,8.68
			S83.73,45.59,78.93,45.59z"/>
		<path class="st1" d="M82.86,32.38h-2.19v2.24h-4.68v-2.24H73.8v2.24h-1.63v2.18h1.63v2.64c0,0.72,0.17,1.27,0.51,1.64
			c0.34,0.37,0.87,0.55,1.59,0.55h3.78v-2.11h-3.22c-0.15,0-0.27-0.05-0.35-0.16c-0.08-0.11-0.12-0.26-0.12-0.47v-2.1h4.68v2.64
			c0,0.72,0.17,1.27,0.51,1.64c0.34,0.37,0.87,0.55,1.59,0.55h2.24v-2.11h-1.68c-0.15,0-0.27-0.05-0.35-0.16
			c-0.08-0.11-0.12-0.26-0.12-0.47v-2.1h2.15v-2.18h-2.15V32.38z"/>
	</g>
	<g>
		<path class="st1" d="M92.52,36.78c-0.06-0.08-0.08-0.18-0.08-0.33v-1.46v-1.52v-1.48h-1.53V37c0,0.51,0.12,0.72,0.35,0.98
			c0.24,0.26,0.61,0.39,1.11,0.39h2.64V36.9h-2.25C92.66,36.9,92.58,36.86,92.52,36.78z"/>
		<path class="st1" d="M107.08,32h-1.53v1.57h-2.07V32h-1.53v1.57h-1.14v1.52h1.14v1.74c0,0.51,0.12,0.89,0.35,1.15
			c0.24,0.26,0.61,0.39,1.11,0.39h1.66V36.9h-1.27c-0.11,0-0.19-0.04-0.25-0.11c-0.06-0.08-0.08-0.18-0.08-0.33v-1.37h2.07v1.74
			c0,0.51,0.12,0.89,0.35,1.15c0.24,0.26,0.61,0.39,1.11,0.39h1.56V36.9h-1.17c-0.11,0-0.19-0.04-0.25-0.11
			c-0.06-0.08-0.08-0.18-0.08-0.33v-1.37h1.5v-1.52h-1.5V32z"/>
		<path class="st1" d="M112.8,36.78c-0.06-0.08-0.08-0.18-0.08-0.33v-1.46v-1.52v-1.48h-1.53v1.48v1.52v1.84
			c0,0.51,0.12,0.89,0.35,1.15c0.24,0.26,0.61,0.39,1.11,0.39h1.56V36.9h-1.17C112.93,36.9,112.85,36.86,112.8,36.78z"/>
		<path class="st1" d="M99.21,33.22c-0.36-0.2-0.8-0.3-1.3-0.3c-0.5,0-0.94,0.1-1.3,0.3c-0.37,0.2-0.66,0.5-0.85,0.89
			c-0.19,0.38-0.29,0.83-0.29,1.35v0.34c0,0.53,0.1,0.98,0.29,1.36c0.19,0.39,0.48,0.69,0.85,0.9c0.36,0.2,0.8,0.3,1.31,0.3
			s0.94-0.1,1.31-0.3c0.37-0.2,0.66-0.51,0.85-0.89c0.19-0.38,0.29-0.83,0.29-1.36v-0.36c0-0.52-0.1-0.97-0.29-1.35
			C99.87,33.73,99.58,33.43,99.21,33.22z M98.8,35.46v0.36c0,0.35-0.08,0.62-0.24,0.8c-0.15,0.17-0.37,0.26-0.66,0.26
			c-0.29,0-0.51-0.08-0.66-0.26c-0.16-0.18-0.24-0.45-0.24-0.8v-0.36c0-0.35,0.08-0.61,0.24-0.79c0.15-0.17,0.37-0.25,0.66-0.25
			c0.29,0,0.51,0.08,0.66,0.25C98.72,34.85,98.8,35.12,98.8,35.46z"/>
		<rect x="114.68" y="31.99" class="st1" width="1.55" height="1.29"/>
		<polygon class="st1" points="114.68,38.38 116.22,38.38 116.23,33.56 114.68,33.56 		"/>
		<path class="st1" d="M110.49,36.86l-0.38-0.22c-0.14-0.08-0.32-0.08-0.46,0l-0.38,0.22c-0.14,0.08-0.23,0.23-0.23,0.4v0.44
			c0,0.16,0.09,0.32,0.23,0.4l0.38,0.22c0.07,0.04,0.15,0.06,0.23,0.06c0.08,0,0.16-0.02,0.23-0.06l0.38-0.22
			c0.14-0.08,0.23-0.23,0.23-0.4v-0.44C110.72,37.1,110.64,36.94,110.49,36.86z"/>
		<path class="st1" d="M120.42,33.95c-0.29-0.26-0.7-0.39-1.21-0.39h-0.87c-0.51,0-0.91,0.13-1.21,0.39
			c-0.3,0.27-0.45,0.64-0.45,1.11v3.32h1.5v-2.9c0-0.22,0.07-0.37,0.38-0.37h0.48c0.29,0,0.34,0.2,0.34,0.37v2.9h1.5v-3.32
			C120.88,34.59,120.73,34.22,120.42,33.95z"/>
		<path class="st1" d="M125.08,35.51c-0.21-0.18-0.47-0.3-0.79-0.35l1.65-1.62H124l-1.11,1.03v-2.58h-1.55v6.38h1.5v-1.43
			c0-0.2,0.15-0.28,0.29-0.28h0.6c0.2,0,0.3,0.09,0.3,0.28v1.43h1.5v-1.76C125.53,36.15,125.38,35.77,125.08,35.51z"/>
	</g>
	<g>
		<path class="st1" d="M91.02,39.75c0.05,0,0.09,0.02,0.13,0.05c0.04,0.03,0.05,0.07,0.05,0.12c0,0.04-0.02,0.08-0.05,0.12
			c-0.04,0.03-0.08,0.05-0.13,0.05c-0.05,0-0.09-0.02-0.13-0.05s-0.05-0.07-0.05-0.12c0-0.05,0.02-0.09,0.05-0.12
			C90.93,39.76,90.97,39.75,91.02,39.75z M90.91,40.4h0.22v1.58h-0.22V40.4z"/>
		<path class="st1" d="M91.6,40.4h0.22v0.28c0.09-0.11,0.19-0.19,0.3-0.24c0.11-0.05,0.23-0.08,0.35-0.08
			c0.13,0,0.24,0.03,0.34,0.09c0.1,0.06,0.17,0.14,0.22,0.24c0.05,0.1,0.07,0.26,0.07,0.47v0.81h-0.22v-0.75
			c0-0.18-0.01-0.3-0.02-0.36c-0.03-0.1-0.08-0.18-0.15-0.24s-0.17-0.08-0.29-0.08c-0.14,0-0.26,0.04-0.36,0.12
			c-0.11,0.08-0.18,0.18-0.21,0.3c-0.02,0.08-0.03,0.22-0.03,0.43v0.58H91.6V40.4z"/>
		<path class="st1" d="M93.78,39.81h0.22v0.59h0.35v0.18h-0.35v1.4h-0.22v-1.4h-0.3V40.4h0.3V39.81z"/>
		<path class="st1" d="M96.15,41.45l0.19,0.09c-0.06,0.11-0.13,0.2-0.21,0.27c-0.08,0.07-0.17,0.12-0.27,0.15
			c-0.1,0.04-0.22,0.05-0.34,0.05c-0.28,0-0.5-0.08-0.66-0.25c-0.16-0.17-0.24-0.36-0.24-0.57c0-0.2,0.07-0.38,0.2-0.54
			c0.17-0.2,0.4-0.3,0.69-0.3c0.3,0,0.53,0.1,0.71,0.31c0.13,0.14,0.19,0.32,0.19,0.54h-1.56c0,0.18,0.07,0.33,0.19,0.45
			c0.12,0.12,0.28,0.18,0.46,0.18c0.09,0,0.17-0.01,0.26-0.04s0.15-0.07,0.21-0.11C96.02,41.63,96.09,41.56,96.15,41.45z
			 M96.15,41.03c-0.03-0.11-0.07-0.2-0.13-0.26c-0.06-0.06-0.13-0.12-0.23-0.16c-0.09-0.04-0.19-0.06-0.29-0.06
			c-0.17,0-0.32,0.05-0.44,0.15c-0.09,0.07-0.16,0.18-0.2,0.33H96.15z"/>
		<path class="st1" d="M96.73,40.4h0.23v0.23c0.07-0.09,0.14-0.16,0.21-0.2s0.15-0.07,0.24-0.07c0.06,0,0.13,0.02,0.2,0.05
			l-0.12,0.17c-0.05-0.02-0.09-0.03-0.12-0.03c-0.07,0-0.15,0.03-0.22,0.08c-0.07,0.06-0.12,0.14-0.16,0.26
			c-0.03,0.09-0.04,0.27-0.04,0.55v0.53h-0.23V40.4z"/>
		<path class="st1" d="M99.52,40.4v1.58H99.3v-0.27c-0.09,0.1-0.2,0.18-0.31,0.23c-0.12,0.05-0.24,0.08-0.38,0.08
			c-0.25,0-0.46-0.08-0.63-0.24c-0.17-0.16-0.26-0.36-0.26-0.59c0-0.23,0.09-0.42,0.26-0.58c0.18-0.16,0.39-0.24,0.63-0.24
			c0.14,0,0.27,0.03,0.39,0.08c0.12,0.06,0.22,0.14,0.3,0.25V40.4H99.52z M98.63,40.55c-0.12,0-0.24,0.03-0.34,0.08
			s-0.19,0.13-0.25,0.23s-0.09,0.21-0.09,0.32s0.03,0.22,0.09,0.32c0.06,0.1,0.15,0.18,0.25,0.24s0.22,0.08,0.34,0.08
			c0.12,0,0.24-0.03,0.35-0.08c0.11-0.06,0.19-0.13,0.25-0.23c0.06-0.1,0.09-0.2,0.09-0.32c0-0.18-0.07-0.33-0.2-0.46
			C98.99,40.61,98.83,40.55,98.63,40.55z"/>
		<path class="st1" d="M101.71,40.73l-0.18,0.1c-0.15-0.18-0.36-0.28-0.62-0.28c-0.21,0-0.39,0.06-0.53,0.19
			c-0.14,0.12-0.21,0.27-0.21,0.45c0,0.12,0.03,0.22,0.1,0.33c0.06,0.1,0.15,0.18,0.26,0.24c0.11,0.06,0.24,0.08,0.38,0.08
			c0.25,0,0.46-0.09,0.62-0.28l0.18,0.11c-0.08,0.11-0.19,0.2-0.33,0.26c-0.14,0.06-0.3,0.09-0.48,0.09c-0.27,0-0.5-0.08-0.68-0.24
			c-0.18-0.16-0.27-0.35-0.27-0.58c0-0.15,0.04-0.29,0.13-0.43c0.08-0.13,0.2-0.23,0.35-0.31c0.15-0.07,0.31-0.11,0.5-0.11
			c0.11,0,0.23,0.02,0.33,0.05c0.11,0.03,0.2,0.07,0.27,0.12C101.59,40.58,101.66,40.65,101.71,40.73z"/>
		<path class="st1" d="M102.33,39.81h0.22v0.59h0.35v0.18h-0.35v1.4h-0.22v-1.4h-0.3V40.4h0.3V39.81z"/>
		<path class="st1" d="M103.91,40.4h0.23l0.53,1.15l0.55-1.15h0.04l0.56,1.15l0.54-1.15h0.23l-0.75,1.58h-0.04l-0.55-1.13
			l-0.55,1.13h-0.04L103.91,40.4z"/>
		<path class="st1" d="M106.93,39.75c0.05,0,0.09,0.02,0.13,0.05c0.04,0.03,0.05,0.07,0.05,0.12c0,0.04-0.02,0.08-0.05,0.12
			s-0.08,0.05-0.13,0.05c-0.05,0-0.09-0.02-0.13-0.05s-0.05-0.07-0.05-0.12c0-0.05,0.02-0.09,0.05-0.12
			C106.84,39.76,106.88,39.75,106.93,39.75z M106.82,40.4h0.22v1.58h-0.22V40.4z"/>
		<path class="st1" d="M107.7,39.81h0.22v0.59h0.35v0.18h-0.35v1.4h-0.22v-1.4h-0.3V40.4h0.3V39.81z"/>
		<path class="st1" d="M108.62,39.79h0.22v0.89c0.09-0.11,0.19-0.19,0.3-0.24s0.23-0.08,0.35-0.08c0.13,0,0.24,0.03,0.34,0.09
			c0.1,0.06,0.17,0.14,0.22,0.24c0.05,0.1,0.07,0.26,0.07,0.48v0.81h-0.22v-0.75c0-0.18-0.01-0.3-0.02-0.36
			c-0.03-0.1-0.08-0.18-0.15-0.24c-0.07-0.05-0.17-0.08-0.29-0.08c-0.13,0-0.26,0.04-0.36,0.12c-0.11,0.08-0.18,0.18-0.21,0.3
			c-0.02,0.08-0.03,0.22-0.03,0.43v0.58h-0.22V39.79z"/>
		<path class="st1" d="M111.32,40.4h0.24l0.6,1.22l0.58-1.22h0.24l-1.03,2.16h-0.24l0.33-0.7L111.32,40.4z"/>
		<path class="st1" d="M114.08,40.36c0.27,0,0.49,0.09,0.66,0.26c0.16,0.16,0.24,0.35,0.24,0.57c0,0.22-0.08,0.41-0.25,0.58
			c-0.17,0.17-0.39,0.25-0.65,0.25c-0.27,0-0.48-0.08-0.65-0.25c-0.17-0.17-0.25-0.36-0.25-0.58c0-0.22,0.08-0.41,0.24-0.57
			C113.59,40.44,113.81,40.36,114.08,40.36z M114.08,40.56c-0.19,0-0.34,0.06-0.48,0.19c-0.13,0.12-0.2,0.28-0.2,0.45
			c0,0.11,0.03,0.22,0.09,0.32s0.14,0.17,0.25,0.23s0.22,0.08,0.34,0.08s0.24-0.03,0.34-0.08s0.19-0.13,0.25-0.23
			s0.09-0.21,0.09-0.32c0-0.18-0.07-0.33-0.2-0.45S114.26,40.56,114.08,40.56z"/>
		<path class="st1" d="M115.37,40.4h0.22v0.74c0,0.18,0.01,0.3,0.03,0.37c0.03,0.1,0.09,0.17,0.18,0.23
			c0.09,0.06,0.2,0.08,0.32,0.08c0.12,0,0.23-0.03,0.32-0.08c0.09-0.05,0.15-0.13,0.18-0.21c0.02-0.06,0.03-0.19,0.03-0.39V40.4
			h0.23v0.78c0,0.22-0.03,0.38-0.08,0.49s-0.14,0.2-0.25,0.26c-0.11,0.06-0.25,0.09-0.42,0.09s-0.31-0.03-0.42-0.09
			s-0.2-0.15-0.25-0.26c-0.06-0.11-0.08-0.28-0.08-0.5V40.4z"/>
		<path class="st1" d="M117.29,40.4h0.23v0.23c0.07-0.09,0.14-0.16,0.21-0.2s0.15-0.07,0.24-0.07c0.06,0,0.13,0.02,0.2,0.05
			l-0.12,0.17c-0.05-0.02-0.09-0.03-0.12-0.03c-0.07,0-0.15,0.03-0.21,0.08s-0.12,0.14-0.16,0.26c-0.03,0.09-0.04,0.27-0.04,0.55
			v0.53h-0.23V40.4z"/>
		<path class="st1" d="M119.3,41.98v-2.14h0.05l1.56,1.64v-1.64h0.23v2.14h-0.05l-1.55-1.62v1.62H119.3z"/>
		<path class="st1" d="M121.71,39.84h1.17v0.21h-0.94v0.67h0.94v0.21h-0.94v1.05h-0.23V39.84z"/>
		<path class="st1" d="M123.06,40.05v-0.21h1.28v0.21h-0.52v1.93h-0.24v-1.93H123.06z"/>
		<path class="st1" d="M125.52,40.57l-0.14,0.13c-0.12-0.11-0.24-0.16-0.35-0.16c-0.07,0-0.13,0.02-0.19,0.07
			c-0.05,0.04-0.08,0.09-0.08,0.15c0,0.05,0.02,0.1,0.06,0.15c0.04,0.05,0.13,0.1,0.27,0.17c0.17,0.08,0.28,0.15,0.34,0.23
			c0.06,0.07,0.09,0.16,0.09,0.25c0,0.13-0.05,0.24-0.15,0.33c-0.1,0.09-0.22,0.14-0.38,0.14c-0.1,0-0.2-0.02-0.29-0.06
			c-0.09-0.04-0.17-0.09-0.23-0.16l0.14-0.15c0.11,0.12,0.24,0.18,0.36,0.18c0.09,0,0.17-0.03,0.23-0.08
			c0.06-0.05,0.09-0.11,0.09-0.18c0-0.06-0.02-0.11-0.06-0.16c-0.04-0.04-0.13-0.1-0.28-0.17c-0.16-0.07-0.26-0.15-0.32-0.22
			c-0.06-0.07-0.08-0.15-0.08-0.25c0-0.12,0.04-0.22,0.13-0.3c0.09-0.08,0.2-0.12,0.34-0.12C125.2,40.36,125.36,40.43,125.52,40.57z
			"/>
	</g>
</g>
</svg>
