<?xml version="1.0" encoding="utf-8"?>
<!-- Generator: Adobe Illustrator 25.3.1, SVG Export Plug-In . SVG Version: 6.00 Build 0)  -->
<svg version="1.1" id="Layer_1" xmlns="http://www.w3.org/2000/svg" xmlns:xlink="http://www.w3.org/1999/xlink" x="0px" y="0px"
	 viewBox="0 0 841.89 595.28" style="enable-background:new 0 0 841.89 595.28;" xml:space="preserve">
<style type="text/css">
	.st0{fill:#2B2171;}
	.st1{fill:#727272;}
</style>
<g>
	<path class="st0" d="M346.17,256.19l-36.92-21.32c-6.31-3.64-14.08-3.64-20.39,0l-36.92,21.32c-6.31,3.64-10.19,10.37-10.19,17.66
		v42.64c0,7.28,3.89,14.01,10.19,17.66l36.92,21.32c6.31,3.64,14.08,3.64,20.39,0l36.92-21.32c6.31-3.64,10.19-10.37,10.19-17.66
		v-42.64C356.37,266.56,352.48,259.83,346.17,256.19z M299.05,345.43c-27.76,0-50.27-22.51-50.27-50.27s22.51-50.27,50.27-50.27
		c27.76,0,50.27,22.51,50.27,50.27S326.82,345.43,299.05,345.43z"/>
	<path class="st0" d="M321.79,268.92h-12.67v13.01h-27.14v-13.01h-12.67v13.01h-9.44v12.63h9.44v15.29c0,4.19,0.98,7.36,2.94,9.5
		c1.96,2.14,5.03,3.21,9.22,3.21h21.89v-12.21h-18.65c-0.89,0-1.57-0.32-2.03-0.95c-0.46-0.63-0.69-1.53-0.69-2.7v-12.14h27.14
		v15.29c0,4.19,0.98,7.36,2.94,9.5c1.96,2.14,5.03,3.21,9.22,3.21h12.95v-12.21h-9.71c-0.89,0-1.57-0.32-2.03-0.95
		c-0.46-0.63-0.69-1.53-0.69-2.7v-12.14h12.44v-12.63h-12.44V268.92z"/>
</g>
<g>
	<path class="st0" d="M377.75,294.43c-0.32-0.44-0.48-1.07-0.48-1.89v-8.48v-8.83v-8.55h-8.85v29.01c0,2.93,0.68,4.19,2.05,5.69
		c1.37,1.5,3.52,2.24,6.44,2.24h15.29v-8.53h-13.03C378.55,295.1,378.08,294.87,377.75,294.43z"/>
	<path class="st0" d="M462.11,266.72h-8.85v9.09h-11.99v-9.09h-8.85v9.09h-6.6v8.83h6.6v10.11c0,2.93,0.68,5.14,2.05,6.64
		c1.37,1.5,3.52,2.24,6.44,2.24h9.59v-8.53h-7.33c-0.62,0-1.1-0.22-1.42-0.66c-0.32-0.44-0.48-1.07-0.48-1.89v-7.91h11.99v10.11
		c0,2.93,0.68,5.14,2.05,6.64c1.37,1.5,3.52,2.24,6.44,2.24h9.05v-8.53h-6.79c-0.62,0-1.1-0.22-1.42-0.66
		c-0.32-0.44-0.48-1.07-0.48-1.89v-7.91h8.69v-8.83h-8.69V266.72z"/>
	<path class="st0" d="M495.23,294.43c-0.32-0.44-0.48-1.07-0.48-1.89v-8.48v-8.83v-8.55h-8.85v8.55v8.83v10.68
		c0,2.93,0.68,5.14,2.05,6.64c1.37,1.5,3.52,2.24,6.44,2.24h9.05v-8.53h-6.79C496.03,295.1,495.56,294.87,495.23,294.43z"/>
	<path class="st0" d="M416.52,273.81c-2.11-1.15-4.65-1.74-7.56-1.74c-2.91,0-5.45,0.58-7.55,1.74c-2.16,1.18-3.82,2.92-4.95,5.16
		c-1.1,2.18-1.65,4.82-1.65,7.82v1.99c0,3.05,0.56,5.71,1.65,7.91c1.13,2.27,2.79,4.02,4.95,5.21c2.11,1.16,4.65,1.76,7.56,1.76
		c2.91,0,5.45-0.59,7.56-1.75c2.15-1.19,3.82-2.93,4.95-5.18c1.1-2.19,1.65-4.83,1.65-7.85v-2.08c0-3-0.56-5.63-1.65-7.82
		C420.33,276.73,418.67,274.99,416.52,273.81z M414.16,286.8v2.08c0,2.02-0.46,3.58-1.38,4.63c-0.88,1-2.13,1.49-3.82,1.49
		c-1.69,0-2.94-0.49-3.82-1.49c-0.91-1.05-1.38-2.61-1.38-4.63v-2.08c0-2.02,0.46-3.56,1.37-4.59c0.88-0.99,2.13-1.47,3.83-1.47
		c1.7,0,2.95,0.48,3.83,1.47C413.7,283.24,414.16,284.78,414.16,286.8z"/>
	<rect x="506.12" y="266.68" class="st0" width="8.96" height="7.45"/>
	<polygon class="st0" points="506.12,303.67 515.08,303.67 515.12,275.79 506.16,275.79 	"/>
	<path class="st0" d="M481.89,294.89l-2.2-1.27c-0.82-0.47-1.84-0.47-2.66,0l-2.19,1.27c-0.82,0.47-1.33,1.36-1.33,2.31v2.54
		c0,0.95,0.51,1.83,1.33,2.31l2.19,1.27c0.41,0.24,0.87,0.36,1.33,0.36c0.46,0,0.92-0.12,1.33-0.36l2.2-1.27
		c0.82-0.47,1.33-1.36,1.33-2.31v-2.54C483.22,296.25,482.71,295.36,481.89,294.89z"/>
	<path class="st0" d="M539.42,278.03c-1.69-1.49-4.04-2.25-6.99-2.25h-5.04c-2.95,0-5.3,0.76-6.99,2.25
		c-1.74,1.54-2.63,3.7-2.63,6.42v19.21h8.66v-16.78c0-1.27,0.41-2.14,2.2-2.14h2.77c1.7,0,1.98,1.19,1.98,2.12v16.8h8.66v-19.21
		C542.05,281.73,541.17,279.57,539.42,278.03z"/>
	<path class="st0" d="M566.39,287.05c-1.2-1.05-2.72-1.74-4.55-2.05l9.54-9.37h-11.25l-6.41,5.99v-14.94h-8.96v36.98h8.66v-8.28
		c0-1.16,0.84-1.61,1.7-1.61h3.49c1.15,0,1.75,0.52,1.75,1.61v8.28h8.66v-10.19C569.02,290.75,568.14,288.59,566.39,287.05z"/>
</g>
<g>
	<path class="st1" d="M369.08,311.61c0.29,0,0.55,0.1,0.75,0.29c0.21,0.19,0.31,0.42,0.31,0.69c0,0.26-0.1,0.49-0.31,0.68
		c-0.21,0.19-0.46,0.29-0.75,0.29c-0.29,0-0.54-0.09-0.74-0.29c-0.21-0.19-0.31-0.42-0.31-0.68c0-0.27,0.1-0.5,0.31-0.69
		C368.54,311.71,368.79,311.61,369.08,311.61z M368.44,315.38h1.29v9.15h-1.29V315.38z"/>
	<path class="st1" d="M372.42,315.38h1.29v1.64c0.52-0.63,1.09-1.1,1.72-1.41c0.63-0.31,1.31-0.47,2.05-0.47
		c0.75,0,1.42,0.17,2,0.52c0.58,0.35,1.01,0.82,1.29,1.41s0.42,1.51,0.42,2.75v4.71h-1.29v-4.37c0-1.05-0.05-1.76-0.14-2.11
		c-0.15-0.61-0.44-1.06-0.86-1.37c-0.42-0.31-0.98-0.46-1.66-0.46c-0.78,0-1.48,0.24-2.1,0.71c-0.62,0.47-1.03,1.05-1.22,1.75
		c-0.12,0.45-0.18,1.28-0.18,2.49v3.36h-1.29V315.38z"/>
	<path class="st1" d="M385.07,311.98h1.29v3.4h2.05v1.02h-2.05v8.13h-1.29v-8.13h-1.76v-1.02h1.76V311.98z"/>
	<path class="st1" d="M398.8,321.5l1.09,0.52c-0.36,0.64-0.77,1.16-1.24,1.55c-0.47,0.39-0.99,0.69-1.58,0.9
		c-0.58,0.2-1.25,0.31-1.99,0.31c-1.64,0-2.92-0.49-3.84-1.47s-1.39-2.08-1.39-3.32c0-1.16,0.39-2.2,1.17-3.1
		c0.99-1.16,2.32-1.73,3.98-1.73c1.71,0,3.08,0.59,4.1,1.78c0.73,0.84,1.1,1.88,1.11,3.13h-9.04c0.02,1.06,0.4,1.93,1.12,2.61
		c0.72,0.68,1.61,1.02,2.67,1.02c0.51,0,1.01-0.08,1.49-0.24c0.48-0.16,0.9-0.38,1.23-0.65C398.04,322.53,398.41,322.09,398.8,321.5
		z M398.8,319.03c-0.17-0.63-0.42-1.13-0.75-1.51c-0.33-0.38-0.77-0.68-1.31-0.91c-0.54-0.23-1.11-0.34-1.71-0.34
		c-0.99,0-1.83,0.29-2.54,0.87c-0.52,0.42-0.91,1.05-1.17,1.89H398.8z"/>
	<path class="st1" d="M402.14,315.38h1.32v1.34c0.39-0.53,0.81-0.92,1.25-1.18c0.44-0.26,0.89-0.39,1.37-0.39
		c0.36,0,0.74,0.1,1.14,0.31l-0.67,0.99c-0.27-0.11-0.5-0.16-0.68-0.16c-0.43,0-0.85,0.16-1.25,0.48c-0.4,0.32-0.7,0.82-0.91,1.5
		c-0.16,0.52-0.24,1.58-0.24,3.16v3.1h-1.32V315.38z"/>
	<path class="st1" d="M418.32,315.38v9.15h-1.27v-1.57c-0.54,0.6-1.15,1.05-1.82,1.35s-1.41,0.45-2.21,0.45
		c-1.42,0-2.64-0.47-3.64-1.41s-1.51-2.08-1.51-3.43c0-1.32,0.51-2.45,1.52-3.38c1.02-0.94,2.24-1.41,3.66-1.41
		c0.82,0,1.57,0.16,2.24,0.48c0.67,0.32,1.25,0.8,1.76,1.44v-1.68H418.32z M413.16,316.28c-0.72,0-1.38,0.16-1.99,0.48
		c-0.61,0.32-1.09,0.77-1.45,1.36c-0.36,0.58-0.54,1.2-0.54,1.85c0,0.64,0.18,1.26,0.54,1.85c0.36,0.59,0.85,1.05,1.46,1.37
		c0.61,0.33,1.27,0.49,1.97,0.49c0.71,0,1.38-0.16,2.01-0.49c0.63-0.33,1.12-0.76,1.46-1.32c0.34-0.55,0.51-1.18,0.51-1.87
		c0-1.06-0.38-1.94-1.15-2.66C415.22,316.64,414.28,316.28,413.16,316.28z"/>
	<path class="st1" d="M430.98,317.28l-1.02,0.58c-0.89-1.07-2.09-1.61-3.62-1.61c-1.22,0-2.24,0.36-3.05,1.08
		c-0.81,0.72-1.21,1.59-1.21,2.61c0,0.67,0.19,1.29,0.56,1.88c0.37,0.59,0.88,1.04,1.53,1.37s1.38,0.49,2.18,0.49
		c1.47,0,2.68-0.54,3.61-1.61l1.02,0.61c-0.48,0.66-1.12,1.17-1.93,1.53c-0.81,0.36-1.73,0.54-2.76,0.54c-1.59,0-2.9-0.46-3.95-1.38
		c-1.05-0.92-1.57-2.04-1.57-3.36c0-0.89,0.25-1.71,0.73-2.47s1.16-1.35,2.02-1.78c0.85-0.43,1.81-0.64,2.87-0.64
		c0.67,0,1.31,0.09,1.92,0.28c0.62,0.18,1.14,0.43,1.57,0.72C430.31,316.44,430.68,316.82,430.98,317.28z"/>
	<path class="st1" d="M434.59,311.98h1.29v3.4h2.05v1.02h-2.05v8.13h-1.29v-8.13h-1.76v-1.02h1.76V311.98z"/>
	<path class="st1" d="M443.74,315.38h1.33l3.08,6.65l3.2-6.65h0.23l3.23,6.65l3.14-6.65h1.34l-4.36,9.15h-0.24l-3.21-6.55
		l-3.21,6.55h-0.24L443.74,315.38z"/>
	<path class="st1" d="M461.25,311.61c0.29,0,0.54,0.1,0.75,0.29c0.21,0.19,0.31,0.42,0.31,0.69c0,0.26-0.1,0.49-0.31,0.68
		c-0.21,0.19-0.46,0.29-0.75,0.29c-0.29,0-0.54-0.09-0.75-0.29c-0.21-0.19-0.31-0.42-0.31-0.68c0-0.27,0.1-0.5,0.31-0.69
		C460.72,311.71,460.97,311.61,461.25,311.61z M460.61,315.38h1.29v9.15h-1.29V315.38z"/>
	<path class="st1" d="M465.72,311.98h1.29v3.4h2.05v1.02h-2.05v8.13h-1.29v-8.13h-1.76v-1.02h1.76V311.98z"/>
	<path class="st1" d="M471,311.85h1.29v5.17c0.52-0.63,1.1-1.1,1.73-1.41c0.63-0.31,1.31-0.47,2.04-0.47c0.75,0,1.42,0.17,2,0.52
		c0.58,0.35,1.01,0.82,1.29,1.4c0.28,0.59,0.42,1.5,0.42,2.75v4.71h-1.29v-4.37c0-1.05-0.05-1.76-0.14-2.11
		c-0.16-0.61-0.45-1.06-0.87-1.37c-0.42-0.31-0.97-0.46-1.66-0.46c-0.78,0-1.48,0.24-2.1,0.71c-0.62,0.47-1.03,1.05-1.22,1.75
		c-0.12,0.45-0.18,1.28-0.18,2.49v3.36H471V311.85z"/>
	<path class="st1" d="M486.68,315.38h1.37l3.45,7.05l3.35-7.05h1.38l-5.99,12.5h-1.36l1.93-4.04L486.68,315.38z"/>
	<path class="st1" d="M502.65,315.14c1.55,0,2.83,0.51,3.85,1.53c0.92,0.93,1.39,2.03,1.39,3.31c0,1.28-0.49,2.4-1.46,3.35
		c-0.98,0.96-2.23,1.43-3.77,1.43c-1.54,0-2.8-0.48-3.78-1.43c-0.98-0.96-1.47-2.07-1.47-3.35c0-1.27,0.46-2.37,1.39-3.3
		C499.81,315.66,501.09,315.14,502.65,315.14z M502.64,316.3c-1.07,0-2,0.36-2.77,1.09s-1.16,1.6-1.16,2.62
		c0,0.66,0.18,1.28,0.53,1.85c0.35,0.57,0.83,1.01,1.43,1.32c0.6,0.31,1.26,0.47,1.97,0.47c0.72,0,1.37-0.16,1.97-0.47
		c0.6-0.31,1.07-0.75,1.43-1.32c0.35-0.57,0.53-1.19,0.53-1.85c0-1.03-0.39-1.9-1.16-2.62S503.71,316.3,502.64,316.3z"/>
	<path class="st1" d="M510.1,315.38h1.29v4.27c0,1.04,0.06,1.76,0.19,2.15c0.18,0.56,0.54,1,1.06,1.33
		c0.52,0.33,1.14,0.49,1.86,0.49c0.72,0,1.33-0.16,1.83-0.48c0.5-0.32,0.85-0.73,1.04-1.25c0.13-0.35,0.19-1.1,0.19-2.25v-4.27h1.32
		v4.49c0,1.26-0.16,2.21-0.49,2.85c-0.32,0.64-0.81,1.14-1.46,1.5c-0.65,0.36-1.46,0.54-2.44,0.54c-0.98,0-1.79-0.18-2.45-0.54
		c-0.66-0.36-1.14-0.87-1.47-1.51c-0.32-0.65-0.48-1.62-0.48-2.92V315.38z"/>
	<path class="st1" d="M521.27,315.38h1.32v1.34c0.39-0.53,0.81-0.92,1.25-1.18c0.44-0.26,0.89-0.39,1.37-0.39
		c0.36,0,0.74,0.1,1.14,0.31l-0.67,0.99c-0.27-0.11-0.5-0.16-0.68-0.16c-0.43,0-0.85,0.16-1.25,0.48c-0.4,0.32-0.7,0.82-0.91,1.5
		c-0.16,0.52-0.24,1.58-0.24,3.16v3.1h-1.32V315.38z"/>
	<path class="st1" d="M532.9,324.53v-12.38h0.3l9.04,9.49v-9.49h1.34v12.38h-0.3l-8.96-9.37v9.37H532.9z"/>
	<path class="st1" d="M546.87,312.16h6.8v1.21h-5.45v3.88h5.45v1.21h-5.45v6.07h-1.36V312.16z"/>
	<path class="st1" d="M554.69,313.37v-1.21h7.44v1.21h-3.03v11.16h-1.38v-11.16H554.69z"/>
	<path class="st1" d="M568.92,316.38l-0.83,0.78c-0.69-0.61-1.37-0.92-2.03-0.92c-0.42,0-0.78,0.13-1.08,0.38
		c-0.3,0.25-0.45,0.55-0.45,0.88c0,0.3,0.12,0.58,0.37,0.85c0.25,0.27,0.76,0.6,1.55,0.97c0.96,0.45,1.62,0.89,1.96,1.31
		c0.34,0.43,0.51,0.91,0.51,1.44c0,0.75-0.29,1.39-0.87,1.91c-0.58,0.52-1.3,0.78-2.17,0.78c-0.58,0-1.13-0.12-1.66-0.34
		c-0.53-0.23-0.96-0.55-1.31-0.95l0.81-0.84c0.66,0.68,1.36,1.02,2.1,1.02c0.52,0,0.96-0.15,1.32-0.45c0.36-0.3,0.55-0.66,0.55-1.07
		c0-0.34-0.12-0.64-0.36-0.9c-0.24-0.26-0.78-0.58-1.63-0.98c-0.91-0.43-1.52-0.85-1.85-1.26s-0.49-0.89-0.49-1.42
		c0-0.7,0.26-1.27,0.78-1.73s1.18-0.69,1.97-0.69C567.05,315.14,567.99,315.56,568.92,316.38z"/>
</g>
</svg>
