<svg xmlns="http://www.w3.org/2000/svg" xmlns:xlink="http://www.w3.org/1999/xlink" version="1.1" id="Layer_1" x="0px" y="0px" style="enable-background:new 0 0 841.89 595.28;" xml:space="preserve" viewBox="241.75 232.14 329.63 126.06">
<style type="text/css">
	.st0{fill:#2B2171;}
	.st1{fill:#727272;}
</style>
<g>
	<path class="st0" d="M346.17,256.19l-36.92-21.32c-6.31-3.64-14.08-3.64-20.39,0l-36.92,21.32c-6.31,3.64-10.19,10.37-10.19,17.66   v42.64c0,7.28,3.89,14.01,10.19,17.66l36.92,21.32c6.31,3.64,14.08,3.64,20.39,0l36.92-21.32c6.31-3.64,10.19-10.37,10.19-17.66   v-42.64C356.37,266.56,352.48,259.83,346.17,256.19z M299.05,345.43c-27.76,0-50.27-22.51-50.27-50.27s22.51-50.27,50.27-50.27   c27.76,0,50.27,22.51,50.27,50.27S326.82,345.43,299.05,345.43z"/>
	<path class="st0" d="M321.79,268.92h-12.67v13.01h-27.14v-13.01h-12.67v13.01h-9.44v12.63h9.44v15.29c0,4.19,0.98,7.36,2.94,9.5   c1.96,2.14,5.03,3.21,9.22,3.21h21.89v-12.21h-18.65c-0.89,0-1.57-0.32-2.03-0.95c-0.46-0.63-0.69-1.53-0.69-2.7v-12.14h27.14   v15.29c0,4.19,0.98,7.36,2.94,9.5c1.96,2.14,5.03,3.21,9.22,3.21h12.95v-12.21h-9.71c-0.89,0-1.57-0.32-2.03-0.95   c-0.46-0.63-0.69-1.53-0.69-2.7v-12.14h12.44v-12.63h-12.44V268.92z"/>
</g>
</svg>